<svg width="1360" height="157" viewBox="0 0 1360 157" fill="none" xmlns="http://www.w3.org/2000/svg">
<g clip-path="url(#clip0_2_312)">
<path d="M73.1372 81.9854V82.177L72.333 82.3687V90.8608L73.1372 91.0525V91.2442H69.3248V91.0525L70.129 90.8608V83.6219L66.9718 91.3768H66.5697L62.4743 83.6219V90.6544L63.5466 91.0525V91.2442H61V91.0525L62.0722 90.6544V82.3687L61.268 82.177V81.9854H62.936C63.1891 81.9854 63.4125 82.0148 63.5912 82.0738C63.7699 82.1328 63.9487 82.2065 64.0827 82.3097C64.2316 82.4129 64.3508 82.5309 64.455 82.6635C64.5593 82.7962 64.6486 82.9584 64.738 83.1206L67.6568 88.6493L69.8907 83.1206C69.9651 82.9289 70.0396 82.7667 70.1439 82.6341C70.2332 82.5014 70.3523 82.3834 70.4864 82.2802C70.6204 82.177 70.7842 82.1033 70.9778 82.0591C71.1714 82.0148 71.4097 81.9854 71.7075 81.9854H73.1372Z" fill="#B1B1B1"/>
<path d="M77.9028 84.4478C78.4538 84.4478 78.9601 84.5215 79.392 84.6836C79.8239 84.8458 80.1962 85.0817 80.5089 85.3766C80.8216 85.6862 81.045 86.0548 81.2088 86.4823C81.3727 86.9099 81.4471 87.4112 81.4471 87.9567C81.4471 88.5022 81.3727 89.0034 81.2088 89.431C81.045 89.8586 80.8067 90.2271 80.5089 90.5367C80.1962 90.8464 79.8239 91.0675 79.392 91.2297C78.9601 91.3918 78.4538 91.4656 77.9028 91.4656C77.3517 91.4656 76.8454 91.3918 76.4135 91.2297C75.9817 91.0675 75.6094 90.8316 75.2966 90.5367C74.9839 90.2271 74.7605 89.8586 74.5967 89.431C74.4329 89.0034 74.3584 88.5022 74.3584 87.9567C74.3584 87.4112 74.4329 86.9099 74.5967 86.4823C74.7605 86.0548 74.9988 85.6862 75.2966 85.3766C75.6094 85.067 75.9817 84.8458 76.4135 84.6836C76.8454 84.5215 77.3369 84.4478 77.9028 84.4478ZM77.9028 91.2149C78.0517 91.2149 78.2006 91.1707 78.3644 91.0675C78.5133 90.9643 78.6474 90.8021 78.7665 90.5515C78.8856 90.3009 78.9899 89.9765 79.0644 89.5637C79.1388 89.1361 79.1835 88.6054 79.1835 87.9714C79.1835 87.3227 79.1388 86.7919 79.0644 86.3791C78.9899 85.9663 78.8856 85.6272 78.7665 85.3913C78.6474 85.1554 78.5133 84.9785 78.3644 84.8753C78.2155 84.7721 78.0666 84.7279 77.9028 84.7279C77.7538 84.7279 77.6049 84.7721 77.4411 84.8753C77.2922 84.9785 77.1581 85.1407 77.039 85.3913C76.9198 85.642 76.8156 85.9663 76.7412 86.3791C76.6667 86.8067 76.622 87.3374 76.622 87.9714C76.622 88.6201 76.6667 89.1509 76.7412 89.5637C76.8156 89.9765 76.9198 90.3156 77.039 90.5515C77.1581 90.7874 77.2922 90.9643 77.4411 91.0675C77.59 91.1559 77.7389 91.2149 77.9028 91.2149Z" fill="#B1B1B1"/>
<path d="M87.9551 81.9854C88.7593 81.9854 89.1614 82.3834 89.1614 83.1796V90.8756L89.9656 91.0672V91.2589H88.7593C88.4317 91.2589 88.1785 91.2147 87.9849 91.1115C87.7913 91.0082 87.6275 90.8903 87.5233 90.7724C87.3892 90.6249 87.285 90.448 87.2254 90.2711C87.1063 90.507 86.9574 90.6987 86.7786 90.8756C86.6297 91.023 86.4212 91.1557 86.1681 91.2884C85.9149 91.4211 85.617 91.48 85.2745 91.48C84.8873 91.48 84.5299 91.4063 84.2023 91.2589C83.8598 91.1115 83.5768 90.8903 83.3385 90.5954C83.1003 90.3006 82.8918 89.932 82.7578 89.5044C82.6088 89.0621 82.5493 88.5609 82.5493 87.9711C82.5493 87.3814 82.6237 86.8801 82.7578 86.4378C82.9067 85.9955 83.1003 85.6417 83.3683 85.3468C83.6215 85.052 83.9343 84.8308 84.2917 84.6834C84.6491 84.5359 85.0512 84.4622 85.4979 84.4622C85.7362 84.4622 85.9447 84.4917 86.1383 84.5359C86.3319 84.5949 86.4957 84.6539 86.6297 84.7276C86.7935 84.8013 86.9276 84.8898 87.0467 84.993V82.4129L86.2425 82.2212V82.0296H87.9551V81.9854ZM87.0169 85.3763C86.9127 85.2731 86.8233 85.1847 86.7042 85.1109C86.6 85.0372 86.4957 84.9782 86.3766 84.9193C86.2574 84.8603 86.1383 84.8456 86.0043 84.8456C85.8405 84.8456 85.6766 84.8898 85.5277 84.9782C85.3788 85.0667 85.2596 85.2141 85.1405 85.4353C85.0362 85.6564 84.9469 85.9808 84.8873 86.3789C84.8278 86.7917 84.798 87.3077 84.798 87.9564C84.798 88.5904 84.8278 89.0916 84.8873 89.4897C84.9469 89.8878 85.0214 90.1974 85.1256 90.4185C85.215 90.6397 85.3192 90.8019 85.4533 90.8756C85.5724 90.9493 85.6915 90.9935 85.8107 90.9935C86.0192 90.9935 86.1978 90.9345 86.3468 90.8313C86.4957 90.7281 86.6148 90.5954 86.7191 90.4628C86.8382 90.3006 86.9425 90.1237 87.0318 89.932V85.3763H87.0169Z" fill="#B1B1B1"/>
<path d="M94.4479 91.4802C93.3012 91.4802 92.4077 91.1706 91.7822 90.5514C91.1419 89.9322 90.8291 89.0623 90.8291 87.9713C90.8291 87.4258 90.9036 86.9245 91.0674 86.497C91.2312 86.0694 91.4546 85.7008 91.7376 85.3912C92.0205 85.0816 92.363 84.8605 92.78 84.6983C93.1821 84.5361 93.6288 84.4624 94.1203 84.4624C94.6266 84.4624 95.0734 84.5361 95.4606 84.6688C95.8627 84.8162 96.1903 85.0079 96.4733 85.2438C96.7562 85.4797 96.9647 85.7598 97.1136 86.0842C97.2626 86.4085 97.337 86.7476 97.337 87.1162C97.337 87.2341 97.337 87.3521 97.3221 87.4406C97.3072 87.529 97.2924 87.6175 97.2775 87.6912C97.2477 87.7797 97.2328 87.8534 97.203 87.9123C96.8158 87.9861 96.3988 88.0598 95.952 88.104C95.5797 88.163 95.1479 88.2072 94.6564 88.2367C94.165 88.2662 93.6586 88.2957 93.1225 88.2957C93.1225 88.8412 93.1672 89.2982 93.2416 89.6668C93.3161 90.0354 93.4352 90.3302 93.5693 90.5367C93.7182 90.7578 93.882 90.9052 94.0756 90.9937C94.2692 91.0822 94.4926 91.1264 94.716 91.1264C94.9841 91.1264 95.2372 91.0822 95.4755 90.979C95.7137 90.8758 95.9222 90.7578 96.0861 90.5956C96.2648 90.4335 96.3988 90.2418 96.503 90.0354C96.6073 89.829 96.652 89.6226 96.652 89.4014H96.9796C96.9796 89.6668 96.92 89.9174 96.8009 90.1681C96.6818 90.4187 96.5031 90.6399 96.2797 90.8315C96.0563 91.0232 95.7882 91.1706 95.4755 91.2886C95.1776 91.4212 94.8351 91.4802 94.4479 91.4802ZM93.1076 87.9566C93.4055 87.9566 93.6735 87.9566 93.9118 87.9418C94.1501 87.9271 94.3437 87.9123 94.5075 87.8976C94.7011 87.8829 94.85 87.8534 94.984 87.8386C94.9989 87.7502 95.0287 87.647 95.0436 87.5438C95.0585 87.4406 95.0734 87.3374 95.0883 87.2194C95.1032 87.1015 95.1032 86.9688 95.1032 86.8361C95.1032 86.438 95.0734 86.0989 95.0138 85.8335C94.9542 85.5682 94.8798 85.347 94.7755 85.1701C94.6862 85.0079 94.5819 84.8752 94.4479 84.8162C94.3139 84.7573 94.2096 84.713 94.0905 84.713C93.9714 84.713 93.8522 84.7573 93.7331 84.8457C93.614 84.9342 93.5097 85.0964 93.4055 85.3175C93.3161 85.5534 93.2268 85.8778 93.1672 86.3053C93.1076 86.7329 93.1076 87.2784 93.1076 87.9566Z" fill="#B1B1B1"/>
<path d="M102.966 84.9044C102.698 84.9044 102.46 84.9634 102.252 85.0666C102.043 85.1698 101.864 85.3025 101.715 85.4352C101.552 85.5974 101.418 85.7743 101.284 85.9659V90.8755L102.088 91.0671V91.2588H98.3348V91.0671L99.139 90.8755V85.0371L98.3348 84.8455V84.6538H99.5411C99.8538 84.6538 100.107 84.7128 100.316 84.816C100.509 84.9192 100.673 85.0371 100.792 85.1551C100.926 85.3025 101.03 85.4647 101.09 85.6416C101.224 85.4499 101.388 85.273 101.581 85.1108C101.745 84.9781 101.954 84.8602 102.207 84.7423C102.46 84.6243 102.743 84.5801 103.086 84.5801C103.562 84.5801 103.919 84.698 104.158 84.9044C104.396 85.1256 104.5 85.4352 104.5 85.8333C104.5 86.1281 104.411 86.3788 104.232 86.5557C104.053 86.7326 103.8 86.8211 103.502 86.8211C103.428 86.8211 103.368 86.8211 103.294 86.8211C103.22 86.8211 103.175 86.8063 103.13 86.8063C103.071 86.7916 103.011 86.7916 102.966 86.7621V84.9044Z" fill="#B1B1B1"/>
<path d="M110.264 86.6294C110.264 86.3345 110.234 86.0691 110.174 85.848C110.115 85.6268 110.04 85.4499 109.936 85.3172C109.847 85.1698 109.742 85.0666 109.608 85.0076C109.489 84.9486 109.37 84.9044 109.251 84.9044C109.042 84.9044 108.864 84.9634 108.715 85.0666C108.566 85.1698 108.432 85.3025 108.342 85.4352C108.223 85.5973 108.134 85.7743 108.045 85.9659V90.8754L108.849 91.0671V91.2587H105.096V91.0671L105.9 90.8754V85.0371L105.096 84.8454V84.6538H106.302C106.615 84.6538 106.868 84.7127 107.077 84.8159C107.27 84.9191 107.434 85.0371 107.553 85.155C107.687 85.3025 107.791 85.4646 107.851 85.6416C107.97 85.4204 108.119 85.214 108.298 85.0371C108.447 84.8897 108.655 84.757 108.894 84.6243C109.132 84.4916 109.444 84.4326 109.802 84.4326C110.189 84.4326 110.546 84.4916 110.859 84.6243C111.187 84.7422 111.455 84.9191 111.678 85.1108C111.902 85.3172 112.08 85.5384 112.214 85.8037C112.349 86.0691 112.408 86.3345 112.408 86.6146V90.8607L113.212 91.0523V91.244H111.47C110.666 91.244 110.264 90.846 110.264 90.0498V86.6294Z" fill="#B1B1B1"/>
<path d="M62.4149 100.577V100.031H72.765V100.577L70.5907 101.122V112.253H78.3943V101.122L76.22 100.577V100.031H86.5701V100.577L84.3958 101.122V124.122L86.5701 124.667V125.213H76.22V124.653L78.3943 124.107V113.153H70.5907V124.107L72.765 124.653V125.198H62.4149V124.653L64.5892 124.107V101.107L62.4149 100.577Z" fill="#B1B1B1"/>
<path d="M99.4368 106.681C100.941 106.681 102.281 106.902 103.473 107.329C104.664 107.757 105.662 108.391 106.496 109.216C107.33 110.042 107.97 111.045 108.402 112.224C108.834 113.404 109.057 114.73 109.057 116.22C109.057 117.709 108.834 119.035 108.402 120.215C107.97 121.394 107.33 122.382 106.496 123.208C105.662 124.033 104.649 124.667 103.473 125.095C102.281 125.523 100.941 125.744 99.4368 125.744C97.9327 125.744 96.5924 125.523 95.401 125.095C94.2096 124.667 93.2118 124.033 92.3779 123.208C91.5439 122.382 90.9035 121.38 90.4717 120.215C90.0398 119.035 89.8164 117.709 89.8164 116.22C89.8164 114.73 90.0398 113.404 90.4717 112.224C90.9035 111.045 91.5439 110.057 92.3779 109.216C93.2118 108.376 94.2245 107.757 95.401 107.329C96.5924 106.902 97.9327 106.681 99.4368 106.681ZM99.4368 125.007C99.8538 125.007 100.256 124.874 100.673 124.608C101.09 124.343 101.447 123.886 101.775 123.223C102.103 122.559 102.371 121.66 102.579 120.525C102.788 119.389 102.892 117.944 102.892 116.19C102.892 114.436 102.788 112.991 102.579 111.856C102.371 110.72 102.103 109.821 101.775 109.157C101.447 108.494 101.075 108.037 100.673 107.772C100.271 107.506 99.8538 107.374 99.4368 107.374C99.0198 107.374 98.6177 107.506 98.2007 107.772C97.7838 108.037 97.4263 108.494 97.0987 109.157C96.7711 109.821 96.503 110.72 96.2945 111.856C96.086 112.991 95.9818 114.436 95.9818 116.19C95.9818 117.944 96.086 119.389 96.2945 120.525C96.503 121.66 96.7711 122.559 97.0987 123.223C97.4263 123.886 97.7987 124.343 98.2007 124.608C98.6177 124.874 99.0198 125.007 99.4368 125.007Z" fill="#B1B1B1"/>
<path d="M136.265 112.607C136.265 111.752 136.191 111.015 136.042 110.44C135.893 109.865 135.714 109.378 135.476 109.01C135.238 108.641 134.985 108.376 134.717 108.199C134.434 108.037 134.166 107.948 133.897 107.948C133.436 107.948 133.034 108.096 132.676 108.391C132.319 108.685 132.021 109.024 131.753 109.378C131.47 109.806 131.202 110.292 130.993 110.808V124.107L133.183 124.652V125.198H123.026V124.652L125.2 124.107V112.607C125.2 111.752 125.126 111.015 124.977 110.44C124.828 109.865 124.649 109.378 124.411 109.01C124.173 108.641 123.92 108.376 123.652 108.199C123.369 108.037 123.101 107.948 122.833 107.948C122.371 107.948 121.969 108.096 121.611 108.391C121.254 108.685 120.956 109.024 120.688 109.378C120.39 109.806 120.137 110.292 119.929 110.808V124.107L122.103 124.652V125.198H111.946V124.652L114.121 124.107V108.302L111.946 107.757V107.211H115.208C116.057 107.211 116.756 107.359 117.293 107.639C117.844 107.919 118.261 108.243 118.588 108.567C118.946 108.98 119.214 109.423 119.392 109.894C119.705 109.29 120.092 108.759 120.554 108.273C120.971 107.86 121.477 107.491 122.073 107.152C122.684 106.813 123.413 106.651 124.292 106.651C125.737 106.651 127.002 106.975 128.045 107.609C129.102 108.243 129.906 109.069 130.457 110.071C130.77 109.452 131.157 108.892 131.619 108.376C132.036 107.948 132.542 107.55 133.138 107.196C133.749 106.842 134.478 106.651 135.357 106.651C136.355 106.651 137.248 106.813 138.082 107.123C138.901 107.432 139.616 107.86 140.212 108.405C140.807 108.951 141.269 109.57 141.597 110.292C141.924 111.015 142.088 111.781 142.088 112.592V124.092L144.262 124.638V125.183H139.542C137.367 125.183 136.28 124.107 136.28 121.954V112.607H136.265Z" fill="#B1B1B1"/>
<path d="M156.236 125.729C153.138 125.729 150.726 124.888 149.013 123.193C147.301 121.497 146.437 119.183 146.437 116.204C146.437 114.715 146.66 113.389 147.092 112.209C147.524 111.03 148.134 110.042 148.909 109.201C149.683 108.376 150.622 107.742 151.724 107.314C152.826 106.887 154.032 106.666 155.327 106.666C156.683 106.666 157.904 106.857 158.976 107.241C160.048 107.624 160.972 108.14 161.716 108.789C162.461 109.437 163.042 110.204 163.444 111.074C163.846 111.944 164.039 112.872 164.039 113.86C164.039 114.199 164.025 114.494 163.98 114.745C163.935 114.996 163.905 115.217 163.846 115.408C163.771 115.644 163.712 115.851 163.667 116.013C162.595 116.234 161.478 116.411 160.287 116.558C159.274 116.706 158.098 116.824 156.772 116.942C155.447 117.045 154.047 117.104 152.602 117.104C152.602 118.593 152.707 119.831 152.93 120.819C153.153 121.807 153.451 122.603 153.838 123.193C154.226 123.783 154.687 124.195 155.223 124.446C155.759 124.697 156.34 124.829 156.966 124.829C157.695 124.829 158.38 124.697 159.021 124.431C159.661 124.166 160.212 123.812 160.689 123.37C161.165 122.927 161.538 122.426 161.821 121.866C162.103 121.306 162.238 120.731 162.238 120.156H163.146C163.146 120.878 162.982 121.571 162.654 122.234C162.327 122.913 161.865 123.502 161.255 124.018C160.644 124.534 159.929 124.947 159.08 125.257C158.217 125.566 157.264 125.729 156.236 125.729ZM152.602 116.204C153.421 116.204 154.151 116.19 154.776 116.146C155.402 116.101 155.938 116.072 156.37 116.028C156.876 115.983 157.308 115.924 157.68 115.851C157.725 115.615 157.785 115.349 157.859 115.055C157.904 114.789 157.949 114.494 157.978 114.17C158.008 113.846 158.038 113.506 158.038 113.153C158.038 112.076 157.948 111.177 157.785 110.44C157.621 109.703 157.398 109.113 157.144 108.656C156.891 108.199 156.593 107.875 156.281 107.683C155.953 107.491 155.625 107.388 155.313 107.388C155 107.388 154.672 107.506 154.345 107.727C154.017 107.963 153.734 108.391 153.481 109.024C153.228 109.658 153.019 110.558 152.84 111.708C152.692 112.858 152.602 114.362 152.602 116.204Z" fill="#B1B1B1"/>
<path d="M181.865 124.829V110.248L168.85 100.046V124.829H181.865Z" fill="#B1B1B1"/>
<path d="M197.964 124.829V110.248L185.157 100.046V124.829H197.964Z" fill="#B1B1B1"/>
</g>
<g clip-path="url(#clip1_2_312)">
<path d="M631.213 125.166H603.234C598.636 125.166 594.91 121.477 594.91 116.925V89.2263C594.91 84.6744 598.636 80.9854 603.234 80.9854H631.213C635.811 80.9854 639.537 84.6744 639.537 89.2263V116.925C639.537 121.477 635.811 125.166 631.213 125.166Z" fill="#B1B1B1"/>
<path d="M625.263 103.482C626.059 104.47 626.463 105.621 626.463 106.921C626.463 108.834 625.819 110.335 624.53 111.398C623.242 112.461 621.398 113.011 618.998 113.011H608.513V90.6895H618.745C621.044 90.6895 622.812 91.1897 624.063 92.1776C625.313 93.1655 625.945 94.5786 625.945 96.4044C625.945 97.7549 625.579 98.8679 624.859 99.7683C624.139 100.669 623.191 101.244 622.017 101.519C623.393 101.844 624.467 102.494 625.263 103.482ZM613.958 99.8183H617.532C619.427 99.8183 620.374 99.018 620.374 97.4173C620.374 95.8166 619.402 95.0163 617.469 95.0163H613.958V99.8183ZM620.88 106.171C620.88 105.371 620.614 104.745 620.084 104.295C619.553 103.845 618.796 103.62 617.823 103.62H613.97V108.634H617.861C619.869 108.622 620.88 107.809 620.88 106.171Z" fill="white"/>
<path d="M665.393 113.011L660.518 104.583H659.28V113.011H653.823V90.6895H663.132C664.913 90.6895 666.429 90.9896 667.654 91.6024C668.892 92.2151 669.814 93.053 670.433 94.1159C671.052 95.1789 671.355 96.3919 671.355 97.7674C671.355 99.3931 670.901 100.769 670.004 101.907C669.094 103.045 667.793 103.82 666.063 104.245L671.418 113.024H665.393V113.011ZM659.28 100.894H662.652C663.739 100.894 664.534 100.656 665.04 100.181C665.545 99.7057 665.81 99.0055 665.81 98.0801C665.81 97.1922 665.545 96.5044 665.027 95.9917C664.509 95.4915 663.713 95.2289 662.652 95.2289H659.28V100.894Z" fill="#B1B1B1"/>
<path d="M696.038 108.947H687.587L686.185 113.023H680.45L688.711 90.8643H694.989L703.25 113.023H697.452L696.038 108.947ZM694.636 104.833L691.831 96.6292L688.989 104.833H694.636Z" fill="#B1B1B1"/>
<path d="M733.351 113.011H727.894L718.774 99.3056V113.011H713.317V90.6895H718.774L727.894 104.52V90.6895H733.351V113.011Z" fill="#B1B1B1"/>
<path d="M763.944 107.634C762.997 109.322 761.633 110.647 759.864 111.598C758.083 112.548 755.999 113.023 753.599 113.023H745.086V90.7017H753.599C756.024 90.7017 758.121 91.1644 759.877 92.0898C761.645 93.0151 762.997 94.3157 763.944 96.0039C764.892 97.6921 765.359 99.6179 765.359 101.819C765.359 103.995 764.879 105.933 763.944 107.634ZM758.071 106.508C759.245 105.395 759.839 103.82 759.839 101.806C759.839 99.7804 759.245 98.2173 758.071 97.1043C756.896 95.9914 755.241 95.4286 753.107 95.4286H750.53V108.184H753.107C755.241 108.184 756.896 107.634 758.071 106.508Z" fill="#B1B1B1"/>
</g>
<g clip-path="url(#clip2_2_312)">
<path d="M1169.28 109.052V78.8867H1187.23V109.037H1169.28V109.052ZM1185.05 102.034L1185.51 98.7017L1183.85 98.5396L1183.34 101.105C1182.3 101.621 1181.02 101.872 1179.48 101.872C1177.4 101.872 1175.75 101.223 1174.54 99.9107C1173.32 98.5985 1172.72 96.8736 1172.72 94.721C1172.72 92.6275 1173.32 90.9025 1174.49 89.5461C1175.67 88.1898 1177.22 87.5116 1179.14 87.5116C1180.12 87.5116 1180.96 87.6295 1181.63 87.8506C1182.3 88.0718 1182.91 88.3667 1183.49 88.75L1183.98 91.2858L1185.68 91.1237L1185.19 87.7917C1184.47 87.1872 1183.62 86.7007 1182.64 86.3174C1181.66 85.9488 1180.44 85.7571 1178.99 85.7571C1177.28 85.7571 1175.81 86.1699 1174.57 87.0103C1173.33 87.8507 1172.36 88.9564 1171.68 90.3275C1170.99 91.7134 1170.65 93.2025 1170.65 94.7948C1170.65 97.3159 1171.44 99.4242 1173.02 101.105C1174.6 102.786 1176.65 103.626 1179.2 103.626C1181.7 103.626 1183.65 103.095 1185.05 102.034Z" fill="#B1B1B1"/>
<path d="M1193.32 109.052V78.8867H1201.03V109.037H1193.32V109.052ZM1194.14 103.361H1200.23V101.842H1198.13V85.0052H1194.11V86.5238H1196.24V101.842H1194.14V103.361Z" fill="#B1B1B1"/>
<path d="M1207.12 109.052V78.8867H1220.68V109.037H1207.12V109.052ZM1209.58 92.3916L1209.15 95.1338L1210.71 95.3255L1211.17 93.2762C1211.84 92.9518 1212.6 92.7896 1213.5 92.7896C1214.57 92.7896 1215.3 93.055 1215.67 93.5858C1216.04 94.1165 1216.22 94.8095 1216.22 95.6646V96.7261C1215.9 96.6966 1215.55 96.6671 1215.18 96.6524C1214.81 96.6376 1214.45 96.6229 1214.09 96.6229C1212.75 96.6229 1211.47 96.8588 1210.28 97.3306C1209.09 97.8024 1208.49 98.7902 1208.49 100.279C1208.49 101.547 1208.9 102.417 1209.71 102.889C1210.53 103.375 1211.34 103.611 1212.13 103.611C1213.1 103.611 1213.93 103.361 1214.61 102.859C1215.3 102.358 1215.84 101.798 1216.22 101.149V101.208C1216.25 102.815 1216.98 103.611 1218.41 103.611C1218.96 103.611 1219.48 103.479 1219.98 103.213L1219.95 101.99C1219.71 102.093 1219.44 102.152 1219.14 102.152C1218.46 102.152 1218.11 101.724 1218.11 100.869V95.2223C1218.11 92.5685 1216.68 91.2416 1213.83 91.2416C1213.04 91.2416 1212.29 91.33 1211.59 91.507C1210.88 91.6986 1210.21 91.9935 1209.58 92.3916ZM1216.21 98.9081C1216.13 99.8812 1215.73 100.663 1215 101.223C1214.27 101.798 1213.5 102.078 1212.66 102.078C1212.14 102.078 1211.64 101.931 1211.16 101.65C1210.67 101.37 1210.43 100.84 1210.43 100.073C1210.43 99.144 1210.8 98.5543 1211.52 98.2741C1212.25 97.994 1213.05 97.8613 1213.96 97.8613C1214.36 97.8613 1214.75 97.8761 1215.12 97.9203C1215.49 97.9498 1215.87 97.9793 1216.19 97.994V98.9081H1216.21Z" fill="#B1B1B1"/>
<path d="M1226.78 109.052V78.8867H1239.1V109.037H1226.78V109.052ZM1237.8 99.9254C1237.8 98.9818 1237.55 98.2889 1237.04 97.8319C1236.54 97.3748 1235.93 97.0652 1235.18 96.8883C1234.44 96.7114 1233.71 96.5639 1232.98 96.446C1232.25 96.328 1231.62 96.1364 1231.11 95.8857C1230.61 95.6351 1230.36 95.1928 1230.36 94.5588C1230.36 93.9544 1230.59 93.5121 1231.09 93.2172C1231.58 92.9223 1232.19 92.7896 1232.95 92.7896C1233.83 92.7896 1234.64 92.9813 1235.4 93.3794L1235.7 95.296L1237.27 95.1043L1236.97 92.3326C1236.46 92.023 1235.85 91.7723 1235.12 91.5659C1234.39 91.3595 1233.62 91.2416 1232.78 91.2416C1231.68 91.2416 1230.67 91.507 1229.73 92.023C1228.79 92.539 1228.33 93.4236 1228.33 94.6915C1228.33 95.6204 1228.58 96.2985 1229.09 96.7261C1229.6 97.1684 1230.22 97.4633 1230.98 97.6402C1231.74 97.8171 1232.49 97.9645 1233.23 98.0972C1233.97 98.2152 1234.6 98.4216 1235.11 98.687C1235.61 98.9523 1235.87 99.4094 1235.87 100.073C1235.87 100.751 1235.54 101.252 1234.88 101.577C1234.23 101.901 1233.48 102.063 1232.63 102.063C1231.68 102.063 1230.79 101.872 1229.97 101.474L1230.04 99.8959L1228.54 99.7337L1228.17 102.432C1228.69 102.771 1229.37 103.051 1230.21 103.272C1231.04 103.493 1231.87 103.611 1232.72 103.611C1234.17 103.611 1235.37 103.287 1236.34 102.623C1237.31 101.99 1237.8 101.075 1237.8 99.9254Z" fill="#B1B1B1"/>
<path d="M1245.19 109.052V78.8867H1257.5V109.037H1245.19V109.052ZM1256.21 99.9254C1256.21 98.9818 1255.95 98.2889 1255.45 97.8319C1254.94 97.3748 1254.33 97.0652 1253.59 96.8883C1252.84 96.7114 1252.11 96.5639 1251.38 96.446C1250.65 96.328 1250.03 96.1364 1249.52 95.8857C1249.02 95.6351 1248.76 95.1928 1248.76 94.5588C1248.76 93.9544 1249 93.5121 1249.49 93.2172C1249.98 92.9223 1250.59 92.7896 1251.35 92.7896C1252.23 92.7896 1253.05 92.9813 1253.81 93.3794L1254.11 95.296L1255.67 95.1043L1255.37 92.3326C1254.87 92.023 1254.26 91.7723 1253.53 91.5659C1252.8 91.3595 1252.02 91.2416 1251.19 91.2416C1250.09 91.2416 1249.07 91.507 1248.14 92.023C1247.2 92.539 1246.74 93.4236 1246.74 94.6915C1246.74 95.6204 1246.99 96.2985 1247.5 96.7261C1248 97.1684 1248.63 97.4633 1249.39 97.6402C1250.15 97.8171 1250.89 97.9645 1251.64 98.0972C1252.38 98.2152 1253.01 98.4216 1253.51 98.687C1254.02 98.9523 1254.27 99.4094 1254.27 100.073C1254.27 100.751 1253.94 101.252 1253.29 101.577C1252.63 101.901 1251.89 102.063 1251.04 102.063C1250.09 102.063 1249.19 101.872 1248.37 101.474L1248.45 99.8959L1246.95 99.7337L1246.57 102.432C1247.09 102.771 1247.78 103.051 1248.61 103.272C1249.45 103.493 1250.28 103.611 1251.13 103.611C1252.57 103.611 1253.78 103.287 1254.75 102.623C1255.72 101.99 1256.21 101.075 1256.21 99.9254Z" fill="#B1B1B1"/>
<path d="M1263.59 109.052V78.8867H1271.71V109.037H1263.59V109.052ZM1264.79 103.361H1270.88V101.842H1268.78V91.4922H1264.74V93.0108H1266.9V101.842H1264.8V103.361H1264.79ZM1266.69 85.993V88.4256H1268.75V85.993H1266.69Z" fill="#B1B1B1"/>
<path d="M1277.8 109.052V78.8867H1290.77V109.037H1277.8V109.052ZM1289.61 99.3652L1287.99 99.0113C1287.63 101.016 1286.54 102.019 1284.76 102.019C1283.57 102.019 1282.66 101.621 1282.03 100.825C1281.41 100.029 1281.09 98.9081 1281.09 97.4928C1281.09 96.2101 1281.38 95.1191 1281.93 94.205C1282.48 93.2909 1283.4 92.8486 1284.68 92.8486C1285.66 92.8486 1286.53 93.0698 1287.24 93.5121L1287.71 95.5171L1289.27 95.3255L1288.81 92.4653C1288.2 92.0082 1287.56 91.6839 1286.89 91.507C1286.22 91.33 1285.49 91.2416 1284.7 91.2416C1282.84 91.2416 1281.42 91.8903 1280.5 93.1877C1279.56 94.4851 1279.1 95.9594 1279.1 97.596C1279.1 99.4978 1279.59 100.987 1280.59 102.034C1281.57 103.095 1282.89 103.626 1284.55 103.626C1286.2 103.626 1287.42 103.169 1288.2 102.27C1288.97 101.356 1289.45 100.397 1289.61 99.3652Z" fill="#B1B1B1"/>
<path d="M1177.04 125.52C1176.7 126.139 1176.19 126.626 1175.54 126.965C1174.87 127.304 1174.08 127.481 1173.15 127.481H1170.49V119.166H1173.15C1174.08 119.166 1174.88 119.328 1175.54 119.667C1176.19 120.006 1176.7 120.478 1177.04 121.112C1177.38 121.746 1177.55 122.468 1177.55 123.323C1177.55 124.163 1177.38 124.901 1177.04 125.52ZM1175.57 125.682C1176.15 125.122 1176.43 124.34 1176.43 123.323C1176.43 122.306 1176.15 121.524 1175.57 120.964C1174.99 120.404 1174.15 120.124 1173.05 120.124H1171.55V126.522H1173.05C1174.15 126.522 1174.99 126.242 1175.57 125.682Z" fill="#B1B1B1"/>
<path d="M1183.07 120.035V122.881H1186.26V123.706H1183.07V126.611H1186.62V127.481H1181.99V119.166H1186.62V120.035H1183.07Z" fill="#B1B1B1"/>
<path d="M1196.03 126.419C1195.84 126.758 1195.55 127.038 1195.17 127.244C1194.78 127.451 1194.3 127.569 1193.72 127.569C1193.17 127.569 1192.66 127.466 1192.23 127.274C1191.8 127.068 1191.46 126.802 1191.19 126.448C1190.94 126.094 1190.79 125.696 1190.74 125.254H1191.9C1191.93 125.49 1192.01 125.726 1192.14 125.947C1192.28 126.168 1192.48 126.36 1192.74 126.507C1192.99 126.655 1193.3 126.728 1193.68 126.728C1194.15 126.728 1194.52 126.61 1194.78 126.345C1195.03 126.08 1195.17 125.77 1195.17 125.372C1195.17 125.033 1195.08 124.753 1194.9 124.546C1194.72 124.34 1194.49 124.163 1194.24 124.045C1193.99 123.927 1193.62 123.794 1193.17 123.647C1192.63 123.47 1192.22 123.308 1191.89 123.161C1191.56 123.013 1191.29 122.777 1191.07 122.468C1190.85 122.158 1190.73 121.76 1190.73 121.259C1190.73 120.831 1190.83 120.448 1191.04 120.109C1191.25 119.784 1191.55 119.519 1191.95 119.342C1192.34 119.165 1192.81 119.077 1193.33 119.077C1194.15 119.077 1194.82 119.268 1195.3 119.666C1195.79 120.064 1196.06 120.566 1196.15 121.185H1194.99C1194.93 120.861 1194.75 120.566 1194.48 120.315C1194.2 120.064 1193.82 119.932 1193.35 119.932C1192.92 119.932 1192.56 120.05 1192.31 120.271C1192.04 120.492 1191.92 120.816 1191.92 121.214C1191.92 121.539 1192.01 121.804 1192.17 121.996C1192.35 122.202 1192.56 122.35 1192.81 122.468C1193.07 122.586 1193.42 122.703 1193.85 122.851C1194.39 123.028 1194.82 123.19 1195.17 123.352C1195.49 123.514 1195.78 123.75 1196 124.06C1196.22 124.369 1196.34 124.797 1196.34 125.328C1196.31 125.711 1196.22 126.08 1196.03 126.419Z" fill="#B1B1B1"/>
<path d="M1201.84 119.166V127.481H1200.75V119.166H1201.84Z" fill="#B1B1B1"/>
<path d="M1212.83 119.799C1213.5 120.286 1213.94 120.935 1214.17 121.76H1213.02C1212.83 121.259 1212.48 120.846 1212.02 120.551C1211.56 120.242 1211.01 120.094 1210.37 120.094C1209.8 120.094 1209.28 120.227 1208.84 120.492C1208.39 120.758 1208.03 121.126 1207.76 121.613C1207.51 122.099 1207.38 122.674 1207.38 123.338C1207.38 124.016 1207.51 124.606 1207.76 125.092C1208.02 125.579 1208.39 125.962 1208.85 126.227C1209.31 126.493 1209.85 126.625 1210.46 126.625C1210.98 126.625 1211.44 126.508 1211.87 126.301C1212.31 126.08 1212.65 125.756 1212.93 125.343C1213.21 124.93 1213.36 124.429 1213.42 123.868H1210.12V123.072H1214.33V124.06C1214.26 124.724 1214.05 125.313 1213.71 125.859C1213.36 126.404 1212.9 126.817 1212.32 127.127C1211.74 127.436 1211.08 127.599 1210.34 127.599C1209.54 127.599 1208.82 127.422 1208.2 127.068C1207.57 126.714 1207.09 126.213 1206.75 125.564C1206.41 124.93 1206.23 124.193 1206.23 123.367C1206.23 122.542 1206.41 121.804 1206.75 121.17C1207.09 120.536 1207.59 120.02 1208.2 119.667C1208.81 119.313 1209.52 119.121 1210.33 119.121C1211.34 119.092 1212.16 119.328 1212.83 119.799Z" fill="#B1B1B1"/>
<path d="M1225.32 127.481H1224.23L1219.87 120.905V127.481H1218.78V119.166H1219.87L1224.23 125.741V119.166H1225.32V127.481Z" fill="#B1B1B1"/>
<path d="M1240.99 126.419C1240.79 126.758 1240.51 127.038 1240.12 127.244C1239.74 127.451 1239.26 127.569 1238.68 127.569C1238.13 127.569 1237.62 127.466 1237.19 127.274C1236.76 127.068 1236.42 126.802 1236.15 126.448C1235.9 126.094 1235.75 125.696 1235.7 125.254H1236.86C1236.89 125.49 1236.97 125.726 1237.1 125.947C1237.24 126.168 1237.44 126.36 1237.7 126.507C1237.95 126.655 1238.26 126.728 1238.64 126.728C1239.11 126.728 1239.48 126.61 1239.74 126.345C1239.99 126.08 1240.12 125.77 1240.12 125.372C1240.12 125.033 1240.04 124.753 1239.86 124.546C1239.68 124.34 1239.45 124.163 1239.2 124.045C1238.95 123.927 1238.58 123.794 1238.13 123.647C1237.59 123.47 1237.18 123.308 1236.85 123.161C1236.52 123.013 1236.25 122.777 1236.03 122.468C1235.81 122.158 1235.69 121.76 1235.69 121.259C1235.69 120.831 1235.79 120.448 1236 120.109C1236.21 119.784 1236.51 119.519 1236.91 119.342C1237.29 119.165 1237.77 119.077 1238.29 119.077C1239.11 119.077 1239.78 119.268 1240.26 119.666C1240.75 120.064 1241.02 120.566 1241.11 121.185H1239.95C1239.89 120.861 1239.71 120.566 1239.44 120.315C1239.16 120.064 1238.78 119.932 1238.31 119.932C1237.88 119.932 1237.52 120.05 1237.27 120.271C1237 120.492 1236.88 120.816 1236.88 121.214C1236.88 121.539 1236.97 121.804 1237.13 121.996C1237.31 122.202 1237.52 122.35 1237.77 122.468C1238.02 122.586 1238.38 122.703 1238.81 122.851C1239.35 123.028 1239.78 123.19 1240.12 123.352C1240.45 123.514 1240.74 123.75 1240.96 124.06C1241.18 124.369 1241.3 124.797 1241.3 125.328C1241.27 125.711 1241.18 126.08 1240.99 126.419Z" fill="#B1B1B1"/>
<path d="M1250.86 119.166V120.035H1248.49V127.481H1247.39V120.035H1245.02V119.166H1250.86Z" fill="#B1B1B1"/>
<path d="M1255.93 119.166V124.149C1255.93 124.96 1256.1 125.564 1256.48 125.962C1256.85 126.345 1257.34 126.552 1258 126.552C1258.64 126.552 1259.13 126.36 1259.48 125.962C1259.84 125.564 1260.02 124.974 1260.02 124.163V119.18H1261.11V124.163C1261.11 125.299 1260.83 126.154 1260.26 126.714C1259.69 127.289 1258.93 127.569 1257.98 127.569C1257.04 127.569 1256.28 127.289 1255.72 126.714C1255.15 126.139 1254.87 125.299 1254.87 124.163V119.18H1255.93V119.166Z" fill="#B1B1B1"/>
<path d="M1272.32 125.52C1271.98 126.139 1271.47 126.626 1270.82 126.965C1270.15 127.304 1269.36 127.481 1268.43 127.481H1265.77V119.166H1268.43C1269.36 119.166 1270.16 119.328 1270.82 119.667C1271.47 120.006 1271.98 120.478 1272.32 121.112C1272.66 121.746 1272.83 122.468 1272.83 123.323C1272.83 124.163 1272.66 124.901 1272.32 125.52ZM1270.86 125.682C1271.44 125.122 1271.73 124.34 1271.73 123.323C1271.73 122.306 1271.44 121.524 1270.86 120.964C1270.28 120.404 1269.45 120.124 1268.35 120.124H1266.84V126.522H1268.35C1269.43 126.522 1270.28 126.242 1270.86 125.682Z" fill="#B1B1B1"/>
<path d="M1278.37 119.166V127.481H1277.28V119.166H1278.37Z" fill="#B1B1B1"/>
<path d="M1289.03 119.608C1289.66 119.976 1290.15 120.477 1290.51 121.126C1290.86 121.775 1291.04 122.512 1291.04 123.323C1291.04 124.134 1290.86 124.871 1290.51 125.52C1290.15 126.168 1289.66 126.67 1289.03 127.038C1288.41 127.407 1287.71 127.584 1286.93 127.584C1286.16 127.584 1285.44 127.407 1284.82 127.038C1284.19 126.67 1283.68 126.168 1283.33 125.52C1282.97 124.871 1282.79 124.134 1282.79 123.323C1282.79 122.512 1282.97 121.775 1283.33 121.126C1283.68 120.477 1284.18 119.976 1284.82 119.608C1285.46 119.239 1286.16 119.062 1286.93 119.062C1287.71 119.062 1288.41 119.239 1289.03 119.608ZM1285.37 120.463C1284.91 120.728 1284.55 121.097 1284.3 121.598C1284.04 122.084 1283.91 122.659 1283.91 123.323C1283.91 123.972 1284.04 124.547 1284.3 125.048C1284.55 125.549 1284.91 125.918 1285.37 126.183C1285.83 126.448 1286.34 126.581 1286.92 126.581C1287.48 126.581 1288 126.448 1288.47 126.183C1288.93 125.918 1289.28 125.534 1289.54 125.048C1289.79 124.561 1289.92 123.986 1289.92 123.338C1289.92 122.674 1289.79 122.099 1289.54 121.613C1289.28 121.126 1288.93 120.743 1288.47 120.477C1288 120.212 1287.5 120.079 1286.92 120.079C1286.35 120.065 1285.83 120.197 1285.37 120.463Z" fill="#B1B1B1"/>
</g>
<g clip-path="url(#clip3_2_312)">
<path d="M901.025 90.0714L902.142 89.8355C902.425 89.8355 902.663 89.8945 902.827 90.0124C902.991 90.1304 903.08 90.2483 903.08 90.3515C903.08 90.4547 903.05 90.6169 903.005 90.8086C902.961 91.0002 902.544 92.9758 901.769 96.7059C900.995 100.436 900.429 103.222 900.072 105.051C901.799 102.721 903.824 99.861 906.133 96.4553C908.441 93.0496 909.796 90.7938 910.183 89.6733C910.303 89.3195 910.466 89.0541 910.66 88.8624C910.854 88.6708 911.032 88.5528 911.181 88.5233C911.33 88.4938 911.568 88.4644 911.881 88.4644C912.194 88.4644 912.566 88.5381 912.998 88.6708C913.43 88.8035 913.653 89.0246 913.653 89.349C913.653 89.9387 912.76 91.6637 910.988 94.4944C909.215 97.3251 907.175 100.333 904.882 103.517C902.588 106.702 900.682 109.223 899.148 111.081C898.88 111.405 898.538 111.582 898.151 111.582C897.763 111.582 897.346 111.508 896.914 111.375C896.483 111.243 896.259 111.007 896.259 110.653C896.259 109.547 897.242 104.21 899.208 94.6713C897.525 96.8239 895.485 99.8315 893.087 103.679C890.585 107.66 889.171 110.137 888.843 111.081C888.664 111.656 888.456 111.995 888.217 112.083C888.054 112.157 887.875 112.186 887.696 112.186L886.49 112.319C886.252 112.319 886.043 112.26 885.835 112.127C885.641 111.995 885.537 111.862 885.537 111.715C885.537 111.316 886.103 110.108 887.22 108.102C888.337 106.097 889.662 103.915 891.166 101.556C892.67 99.1975 894.234 96.9123 895.872 94.6861C897.51 92.4598 898.776 90.956 899.67 90.2041C899.848 90.0419 900.057 89.9682 900.295 89.9682L901.025 90.0714Z" fill="#B1B1B1"/>
<path d="M918.925 100.067C919.699 100.067 920.087 100.333 920.087 100.849C920.087 101.129 920.027 101.335 919.893 101.468C919.759 101.601 919.476 102.028 919.044 102.78C918.612 103.517 918.136 104.461 917.615 105.626C917.093 106.776 916.751 107.763 916.602 108.574C916.572 108.678 916.557 108.81 916.557 109.002C916.557 109.562 916.706 109.828 917.019 109.828C917.332 109.828 917.689 109.68 918.106 109.4C918.523 109.105 918.895 108.81 919.223 108.471C919.551 108.147 919.863 107.808 920.176 107.469C920.489 107.13 920.667 106.923 920.727 106.879C920.787 106.835 920.876 106.805 920.995 106.805C921.189 106.805 921.308 106.953 921.353 107.247C921.397 107.542 921.412 107.837 921.412 108.162C921.412 108.486 921.382 108.692 921.323 108.81C921.025 109.385 920.385 110.078 919.372 110.889C918.374 111.7 917.451 112.098 916.632 112.098C915.813 112.098 915.202 111.847 914.83 111.361C914.457 110.874 914.249 110.314 914.249 109.724C914.249 109.12 914.353 108.604 914.562 108.147C913.713 109.238 912.745 110.152 911.658 110.919C910.556 111.67 909.677 112.054 908.977 112.054C908.277 112.054 907.726 111.847 907.279 111.435C906.713 110.919 906.445 110.211 906.445 109.297C906.445 108.383 906.654 107.469 907.071 106.54C907.488 105.626 908.024 104.771 908.694 104.019C909.364 103.252 910.109 102.559 910.913 101.94C912.596 100.628 914.16 99.979 915.589 99.979C916.14 99.979 916.587 100.067 916.93 100.244C917.272 100.421 917.495 100.657 917.585 100.923C917.823 100.554 918.032 100.333 918.21 100.23C918.344 100.112 918.597 100.067 918.925 100.067ZM916.9 101.748C915.157 101.748 913.355 102.707 911.494 104.623C910.839 105.316 910.228 106.127 909.662 107.085C909.096 108.044 908.828 108.692 908.828 109.046C908.828 109.4 908.932 109.577 909.141 109.577C909.424 109.577 910.213 109.017 911.524 107.911C912.834 106.805 913.698 105.98 914.115 105.449C914.591 104.859 915.515 103.621 916.9 101.748Z" fill="#B1B1B1"/>
<path d="M930.511 92.0762L931.137 92.2237C931.226 92.2237 931.316 92.2679 931.375 92.3564C931.45 92.4448 931.479 92.5333 931.479 92.607C931.479 92.6807 931.375 92.9019 931.152 93.2557C930.928 93.6095 930.69 94.0076 930.392 94.4499C930.094 94.8922 929.945 95.1428 929.931 95.1871C930.72 95.1281 931.286 95.0986 931.613 95.0986C931.941 95.0986 932.164 95.1281 932.298 95.1723C932.418 95.2166 932.567 95.3493 932.715 95.5557C932.879 95.7621 933.013 95.9242 933.147 96.0274C933.281 96.1306 933.341 96.2928 933.341 96.4992C933.341 96.7056 933.207 96.8973 932.954 97.03C932.701 97.1774 932.418 97.2659 932.12 97.2954C929.752 97.5313 928.456 97.6492 928.218 97.664C927.399 98.9171 926.237 100.863 924.763 103.502C923.289 106.141 922.499 107.807 922.41 108.471C922.365 108.78 922.35 109.016 922.35 109.208C922.35 109.606 922.559 109.798 922.976 109.798C923.393 109.798 923.855 109.635 924.361 109.326C924.867 109.002 925.344 108.662 925.761 108.294C926.907 107.291 927.518 106.775 927.593 106.775C927.861 106.775 927.995 107.232 927.995 108.132C927.995 108.618 927.771 109.06 927.31 109.459C926.282 110.328 925.418 110.992 924.718 111.434C924.018 111.876 923.318 112.098 922.604 112.098C922.455 112.098 922.306 112.083 922.172 112.053C921.353 111.906 920.757 111.611 920.385 111.169C919.997 110.726 919.819 110.137 919.819 109.4C919.819 108.662 920.042 107.748 920.489 106.687C920.936 105.625 921.487 104.49 922.157 103.296C923.259 101.335 924.361 99.5069 925.448 97.7966L924.867 97.8704C923.691 98.003 923.006 98.062 922.812 98.062H922.678C922.38 98.062 922.097 98.003 921.829 97.8851C921.561 97.7672 921.412 97.6197 921.412 97.4575C921.412 97.2806 921.487 97.1184 921.636 96.9563C921.785 96.7941 921.874 96.6614 921.904 96.5729C921.978 96.3518 922.246 96.1012 922.708 95.8358C923.17 95.5704 923.512 95.423 923.75 95.4082C923.989 95.3935 924.212 95.3787 924.435 95.364C924.659 95.3492 924.897 95.3492 925.165 95.3345C925.433 95.3198 925.642 95.3198 925.791 95.305L927.161 95.246C928.009 93.9781 928.605 93.1525 928.918 92.7987C929.246 92.4301 929.424 92.2384 929.469 92.2089C929.514 92.1794 929.618 92.1499 929.782 92.1499L930.511 92.0762Z" fill="#B1B1B1"/>
<path d="M939.67 106.805C939.864 106.805 939.983 106.952 940.027 107.247C940.072 107.542 940.087 107.837 940.087 108.161C940.087 108.486 940.057 108.692 939.998 108.81C939.7 109.37 939.059 110.063 938.062 110.874C937.064 111.685 936.111 112.098 935.217 112.098C934.666 112.098 934.16 111.936 933.683 111.611C933.222 111.287 932.983 110.712 932.983 109.901C932.983 109.09 933.207 108.279 933.639 107.498C931.107 110.638 929.141 112.201 927.697 112.201C927.131 112.201 926.669 111.994 926.312 111.596C925.954 111.198 925.79 110.786 925.79 110.343C925.79 109.916 925.85 109.473 925.969 109.016C926.088 108.559 926.222 108.146 926.356 107.778C926.49 107.409 926.699 106.967 926.967 106.436C927.235 105.905 927.443 105.522 927.563 105.272C927.682 105.021 927.905 104.667 928.203 104.181C928.501 103.694 928.873 103.031 929.35 102.205C929.826 101.379 930.213 100.76 930.526 100.362C930.839 99.964 931.137 99.7576 931.435 99.7576C931.732 99.7576 931.986 99.8755 932.209 100.111C932.432 100.347 932.552 100.554 932.552 100.701C932.552 100.849 932.209 101.527 931.524 102.736C929.514 106.348 928.501 108.441 928.501 109.046C928.501 109.193 928.56 109.267 928.665 109.267C929.156 109.267 930.377 108.22 932.313 106.127C934.249 104.033 935.381 102.691 935.694 102.102C936.007 101.512 936.289 101.011 936.587 100.613C936.87 100.215 937.094 99.964 937.243 99.8755C937.674 99.5954 938.24 99.448 938.94 99.4185C939.059 99.4185 939.134 99.4185 939.193 99.4332C939.253 99.448 939.327 99.5364 939.402 99.6839C939.476 99.8313 939.521 99.964 939.521 100.067C939.432 100.347 939.03 101.099 938.3 102.323C937.585 103.547 937.183 104.239 937.109 104.387C935.902 106.849 935.307 108.456 935.307 109.193C935.307 109.621 935.47 109.827 935.798 109.827C936.394 109.753 937.109 109.282 937.943 108.427C938.255 108.117 938.553 107.793 938.851 107.468C939.149 107.144 939.342 106.952 939.402 106.908C939.476 106.834 939.566 106.805 939.67 106.805Z" fill="#B1B1B1"/>
<path d="M944.093 103.311C946.491 100.613 948.546 99.2566 950.229 99.2566C950.646 99.2566 950.988 99.3745 951.256 99.6252C951.524 99.8758 951.658 100.185 951.658 100.584C951.658 100.982 951.375 101.63 950.809 102.559C950.244 103.473 949.722 104.255 949.246 104.889C948.993 105.213 948.71 105.375 948.382 105.375C948.069 105.375 947.816 105.257 947.637 105.021C947.459 104.785 947.369 104.52 947.369 104.21C947.369 103.517 947.742 102.721 948.501 101.851L948.471 101.822C948.129 101.851 947.31 102.515 945.969 103.783C944.644 105.066 943.512 106.215 942.574 107.218C941.651 108.235 940.638 109.459 939.536 110.919C939.223 111.346 938.955 111.567 938.732 111.567C938.508 111.567 938.225 111.494 937.868 111.361C937.511 111.228 937.287 111.125 937.213 111.066C937.138 111.007 937.094 110.904 937.094 110.756C937.094 110.624 937.138 110.447 937.213 110.27C937.287 110.078 937.451 109.813 937.66 109.474C937.868 109.135 938.211 108.574 938.657 107.808C939.104 107.041 939.789 105.876 940.727 104.328C941.666 102.78 942.217 101.837 942.41 101.512C942.797 100.849 943.11 100.362 943.363 100.068C943.825 99.4925 944.599 99.2124 945.687 99.2124C945.925 99.2124 946.059 99.3598 946.059 99.6694C946.059 100.141 945.612 101.041 944.733 102.338L944.093 103.311Z" fill="#B1B1B1"/>
<path d="M960.519 100.244C960.519 100.908 960.251 101.497 959.7 101.999C959.149 102.5 958.539 102.75 957.839 102.75C957.615 102.75 957.466 102.691 957.392 102.588C957.317 102.485 957.288 102.338 957.288 102.175C957.288 102.013 957.303 101.836 957.347 101.674C956.975 101.792 956.573 101.984 956.126 102.234C955.679 102.485 955.128 102.854 954.473 103.355C953.818 103.856 953.49 104.21 953.49 104.461C953.49 104.534 953.609 104.579 953.848 104.579C954.086 104.579 954.458 104.49 954.95 104.328C955.441 104.166 955.798 104.077 955.992 104.077C956.186 104.077 956.32 104.092 956.379 104.107C956.513 104.181 956.647 104.328 956.811 104.564C956.96 104.8 957.035 104.991 957.035 105.124C957.035 105.257 956.901 105.434 956.632 105.655C956.364 105.876 956.067 106.038 955.739 106.156C955.396 106.274 955.173 106.363 955.069 106.422C952.924 107.616 951.852 108.427 951.852 108.869C951.852 109.65 952.522 110.048 953.877 110.048C954.741 110.048 955.62 109.783 956.484 109.238C957.228 108.78 957.898 108.309 958.494 107.822C959.09 107.35 959.462 107.056 959.626 106.938C959.79 106.82 959.909 106.775 959.983 106.775C960.251 106.775 960.385 107.07 960.385 107.66C960.385 108.25 960.356 108.633 960.281 108.81C960.207 109.002 960.013 109.223 959.67 109.503C957.496 111.257 955.426 112.142 953.49 112.142C952.448 112.142 951.629 111.995 951.003 111.714C949.856 111.198 949.291 110.417 949.291 109.355C949.291 107.97 950.259 106.908 952.209 106.2C951.822 106.023 951.569 105.817 951.465 105.537C951.346 105.272 951.301 104.844 951.301 104.254C951.301 103.665 951.584 103.045 952.135 102.382C952.686 101.718 953.371 101.173 954.175 100.76C955.962 99.8019 957.571 99.3301 958.971 99.3301C959.313 99.3301 959.641 99.4038 959.998 99.566C960.356 99.7281 960.519 99.9493 960.519 100.244Z" fill="#B1B1B1"/>
<path d="M995.278 89.983H995.471C995.531 89.983 995.575 89.983 995.59 89.9977C995.605 90.0125 995.62 90.0125 995.65 90.0272C995.68 90.0272 995.695 90.042 995.724 90.0714C995.769 90.1157 995.843 90.1599 995.933 90.2041C996.052 90.2926 996.112 90.3958 996.112 90.5137C996.112 90.6317 995.992 90.8823 995.754 91.2656C995.516 91.649 994.905 92.5778 993.907 94.0816C991.629 97.5316 989.589 100.746 987.787 103.694C984.674 108.825 983.096 111.405 983.066 111.434C983.036 111.464 983.021 111.493 983.006 111.523C982.991 111.582 982.962 111.611 982.887 111.611L982.679 111.567L982.262 111.67L982.023 111.626L981.77 111.67H981.681L980.832 111.788C980.326 111.788 980.073 111.611 980.073 111.272C980.073 111.125 980.117 110.948 980.207 110.742C980.519 110.004 982.113 107.336 984.972 102.706C983.096 102.751 981.234 102.78 979.402 102.78L976.126 102.765C975.59 103.62 974.845 104.829 973.907 106.407C971.882 109.842 970.81 111.567 970.676 111.597C970.542 111.626 970.437 111.656 970.348 111.656C970.259 111.656 970.184 111.611 970.125 111.508C970.05 111.42 970.005 111.361 969.976 111.361C969.946 111.361 969.901 111.375 969.812 111.42C969.737 111.464 969.618 111.479 969.454 111.479L969.097 111.464L968.963 111.375C968.948 111.375 968.933 111.39 968.918 111.42C968.903 111.449 968.859 111.464 968.799 111.464C968.367 111.464 968.144 111.287 968.144 110.918C968.144 110.683 968.233 110.358 968.397 109.96C968.576 109.562 968.799 109.134 969.082 108.677C969.365 108.22 970.08 107.115 971.256 105.39C972.418 103.665 972.999 102.795 972.999 102.78C972.805 102.765 972.582 102.765 972.329 102.751C971.807 102.751 971.45 102.736 971.227 102.692C970.646 102.588 970.244 102.117 970.035 101.276C969.916 100.863 969.871 100.598 969.886 100.465C969.886 100.2 970.006 100.053 970.244 100.053L970.646 100.156C970.854 100.171 971.331 100.185 972.105 100.23C972.88 100.274 973.431 100.289 973.773 100.289L974.637 100.259C975.962 98.2097 977.541 95.8803 979.388 93.2855C978.047 94.3765 976.558 94.922 974.92 94.922C974.146 94.922 973.475 94.7451 972.924 94.3765C972.358 94.0079 972.09 93.5361 972.09 92.9759C972.09 92.4156 972.299 91.9733 972.731 91.6342C973.163 91.3099 973.565 91.1477 973.952 91.1477C974.339 91.1477 974.533 91.2067 974.533 91.3246C974.533 91.3689 974.473 91.4131 974.369 91.4573C974.265 91.5163 974.205 91.5605 974.205 91.6047C974.205 91.7669 974.384 91.9144 974.741 92.0323C975.099 92.1502 975.501 92.224 975.947 92.224C976.394 92.224 976.93 92.0913 977.586 91.8406C978.241 91.59 978.911 91.2509 979.611 90.8528C980.594 90.2926 981.368 89.8208 981.934 89.4522C982.262 89.29 982.56 89.2163 982.857 89.2163C983.155 89.2163 983.349 89.2458 983.483 89.3195C983.617 89.3785 983.706 89.4522 983.766 89.5112C983.825 89.5701 983.9 89.6586 983.959 89.7618C984.034 89.865 984.094 89.9535 984.168 89.9977C984.228 90.0567 984.272 90.1157 984.272 90.1894C984.272 90.2631 984.228 90.3663 984.153 90.5285C984.079 90.6759 983.691 91.2951 982.991 92.3714C982.292 93.4477 981.383 94.8188 980.281 96.4848C979.179 98.1508 978.375 99.3745 977.869 100.171C980.594 100.171 983.528 100.126 986.685 100.023C990.527 94.0226 992.552 90.8823 992.761 90.5875C992.969 90.2926 993.163 90.1009 993.342 90.0125C993.52 89.924 993.729 89.8798 993.982 89.8798L995.278 89.983Z" fill="#B1B1B1"/>
<path d="M1000.25 100.037C1000.56 100.037 1000.88 100.17 1001.19 100.45C1001.52 100.73 1001.67 101.143 1001.67 101.703C1001.67 102.264 1001.47 102.986 1001.07 103.885C1000.67 104.77 1000.13 105.684 999.433 106.613C998.748 107.527 997.973 108.397 997.154 109.208C996.32 110.019 995.427 110.682 994.474 111.198C993.506 111.714 992.642 111.98 991.853 111.98C991.063 111.98 990.438 111.729 989.961 111.242C989.485 110.756 989.246 110.078 989.246 109.208C989.246 108.338 989.47 107.365 989.902 106.318C990.334 105.257 990.885 104.328 991.57 103.517C992.255 102.706 992.984 101.984 993.789 101.335C995.442 100.008 996.901 99.3594 998.152 99.3594C998.718 99.3594 999.135 99.492 999.418 99.7722C999.522 99.8606 999.567 99.9491 999.567 100.008V100.096C999.731 100.037 999.954 100.037 1000.25 100.037ZM998.718 102.043H998.614C998.256 102.043 998.078 101.792 998.078 101.276C997.333 101.512 996.559 101.939 995.739 102.544C994.92 103.148 994.191 103.871 993.55 104.696C992.24 106.348 991.585 107.748 991.57 108.883C991.57 109.444 991.778 109.724 992.195 109.724C992.612 109.724 993.238 109.444 994.057 108.913C994.876 108.382 995.695 107.601 996.514 106.584C997.318 105.581 997.929 104.696 998.331 103.959C998.733 103.222 998.941 102.721 998.941 102.441C998.926 102.175 998.852 102.043 998.718 102.043Z" fill="#B1B1B1"/>
<path d="M1001.34 111.641L1000.59 111.611H1000.33C1000.22 111.582 1000.12 111.523 999.998 111.434C999.879 111.346 999.79 111.272 999.73 111.243C999.671 111.213 999.641 111.125 999.641 111.021C999.641 110.918 999.686 110.727 999.76 110.476C1001.74 106.156 1003.66 102.692 1005.52 100.111C1005.73 99.8314 1006.06 99.6102 1006.51 99.4628C1006.95 99.3153 1007.4 99.2416 1007.83 99.2416C1008.08 99.2416 1008.22 99.4333 1008.22 99.8314C1008.22 99.9493 1008.17 100.097 1008.1 100.274C1008.02 100.465 1007.82 100.76 1007.49 101.188C1007.16 101.615 1006.77 102.102 1006.33 102.633C1005.88 103.163 1005.63 103.488 1005.57 103.576C1006.97 102.146 1008.22 101.084 1009.35 100.377C1010.48 99.6839 1011.29 99.3301 1011.79 99.3301C1012.3 99.3301 1012.69 99.4775 1012.95 99.7576C1013.22 100.038 1013.36 100.347 1013.36 100.672C1013.36 100.996 1013.33 101.276 1013.28 101.483C1013.24 101.704 1013.15 101.925 1013.03 102.161C1012.91 102.397 1012.81 102.603 1012.72 102.765C1012.63 102.927 1012.48 103.149 1012.28 103.414C1012.08 103.679 1011.94 103.871 1011.87 103.974C1011.79 104.077 1011.63 104.269 1011.39 104.549C1011.15 104.829 1011.02 104.991 1011 105.021C1011.29 104.741 1011.69 104.328 1012.19 103.768C1012.7 103.208 1013.13 102.75 1013.49 102.382C1013.85 102.013 1014.28 101.586 1014.82 101.114C1015.35 100.642 1015.84 100.259 1016.29 99.9788C1017.39 99.3006 1018.51 98.9468 1019.64 98.9468C1020.03 98.9468 1020.36 99.0647 1020.62 99.3153C1020.89 99.566 1021.03 99.8461 1021.03 100.185C1021.03 100.524 1020.61 101.335 1019.79 102.603C1018.97 103.871 1018.14 105.154 1017.32 106.436C1016.5 107.719 1016.08 108.53 1016.08 108.869C1016.08 109.326 1016.17 109.606 1016.33 109.695C1016.51 109.783 1016.72 109.813 1016.96 109.798C1017.2 109.783 1017.56 109.621 1017.99 109.326C1018.43 109.031 1018.82 108.736 1019.16 108.412C1019.73 107.911 1020.24 107.424 1020.73 106.952C1020.83 106.864 1020.94 106.82 1021.07 106.82C1021.26 106.82 1021.38 106.967 1021.43 107.262C1021.47 107.557 1021.49 107.852 1021.49 108.176C1021.49 108.5 1021.46 108.707 1021.4 108.825C1021.1 109.385 1020.44 110.078 1019.45 110.904C1018.43 111.714 1017.47 112.127 1016.54 112.127C1016.42 112.127 1016.35 112.127 1016.3 112.112C1015.26 112.009 1014.53 111.729 1014.13 111.257C1013.73 110.786 1013.53 110.225 1013.53 109.591C1013.53 108.957 1013.76 108.161 1014.21 107.247C1014.65 106.333 1015.13 105.493 1015.66 104.756C1016.2 104.018 1016.68 103.34 1017.12 102.736C1017.57 102.131 1017.79 101.807 1017.79 101.763C1017.79 101.718 1017.75 101.689 1017.67 101.689C1017.36 101.689 1016.66 102.19 1015.56 103.208C1013.7 104.932 1012.09 106.598 1010.74 108.191C1010.38 108.618 1009.53 109.68 1008.2 111.405C1008.05 111.611 1007.8 111.714 1007.47 111.714C1007.15 111.714 1006.8 111.655 1006.45 111.523C1006.09 111.39 1005.91 111.228 1005.91 111.036C1005.91 110.933 1006.71 109.518 1008.34 106.79C1009.96 104.063 1010.76 102.574 1010.76 102.338C1010.76 102.087 1010.62 101.969 1010.32 101.969C1010.02 101.969 1009.39 102.411 1008.46 103.296C1005.88 105.729 1003.88 108.161 1002.47 110.564C1002.38 110.712 1002.2 110.933 1001.93 111.228C1001.67 111.523 1001.43 111.641 1001.34 111.641Z" fill="#B1B1B1"/>
<path d="M1030.87 100.244C1030.87 100.908 1030.6 101.497 1030.05 101.999C1029.5 102.5 1028.89 102.75 1028.19 102.75C1027.97 102.75 1027.82 102.691 1027.74 102.588C1027.67 102.485 1027.64 102.338 1027.64 102.175C1027.64 102.013 1027.65 101.836 1027.7 101.674C1027.33 101.792 1026.92 101.984 1026.48 102.234C1026.03 102.485 1025.48 102.854 1024.82 103.355C1024.17 103.856 1023.84 104.21 1023.84 104.461C1023.84 104.534 1023.96 104.579 1024.2 104.579C1024.44 104.579 1024.81 104.49 1025.3 104.328C1025.79 104.166 1026.15 104.077 1026.34 104.077C1026.54 104.077 1026.67 104.092 1026.73 104.107C1026.86 104.181 1027 104.328 1027.16 104.564C1027.31 104.8 1027.39 104.991 1027.39 105.124C1027.39 105.257 1027.25 105.434 1026.98 105.655C1026.71 105.876 1026.42 106.038 1026.09 106.156C1025.75 106.274 1025.52 106.363 1025.42 106.422C1023.27 107.616 1022.2 108.427 1022.2 108.869C1022.2 109.65 1022.87 110.048 1024.23 110.048C1025.09 110.048 1025.97 109.783 1026.83 109.238C1027.58 108.78 1028.25 108.309 1028.84 107.822C1029.44 107.35 1029.81 107.056 1029.98 106.938C1030.14 106.82 1030.26 106.775 1030.33 106.775C1030.6 106.775 1030.74 107.07 1030.74 107.66C1030.74 108.25 1030.71 108.633 1030.63 108.81C1030.56 109.002 1030.36 109.223 1030.02 109.503C1027.85 111.257 1025.78 112.142 1023.84 112.142C1022.8 112.142 1021.98 111.995 1021.35 111.714C1020.21 111.198 1019.64 110.417 1019.64 109.355C1019.64 107.97 1020.61 106.908 1022.56 106.2C1022.17 106.023 1021.92 105.817 1021.82 105.537C1021.7 105.272 1021.65 104.844 1021.65 104.254C1021.65 103.665 1021.93 103.045 1022.49 102.382C1023.04 101.718 1023.72 101.173 1024.53 100.76C1026.31 99.8019 1027.92 99.3301 1029.32 99.3301C1029.66 99.3301 1029.99 99.4038 1030.35 99.566C1030.71 99.7281 1030.87 99.9493 1030.87 100.244Z" fill="#B1B1B1"/>
<path d="M879.908 115.725C883.824 117.346 887.815 118.6 891.881 119.558C895.917 120.56 900.027 121.268 904.137 121.71C906.192 121.991 908.262 122.02 910.303 122.212C912.373 122.226 914.428 122.389 916.483 122.271L919.566 122.197C920.593 122.182 921.621 122.049 922.648 121.991C923.676 121.902 924.704 121.858 925.716 121.725L928.769 121.298C932.865 120.855 936.841 119.912 940.802 118.776C944.808 117.685 948.591 116.241 952.597 114.737C956.692 113.248 961.13 112.275 965.627 112.746C967.846 113.027 970.08 113.734 971.897 115.032C973.729 116.314 975.039 118.142 975.873 120.059C974.622 118.349 973.059 116.948 971.257 116.078C969.455 115.209 967.474 114.855 965.508 114.914C961.532 114.973 957.615 116.285 953.937 117.936C950.199 119.764 946.148 121.416 942.068 122.787C937.958 124.099 933.713 125.146 929.41 125.676C920.847 126.797 912.075 126.812 903.616 125.116C899.372 124.349 895.232 123.155 891.226 121.637C887.25 120.059 883.363 118.216 879.908 115.725Z" fill="#B1B1B1"/>
<path d="M1022.32 91.1773C1019 89.7767 1015.62 88.6857 1012.19 87.8306C1008.78 86.9312 1005.33 86.2973 1001.86 85.855C1000.13 85.5896 998.375 85.5306 996.648 85.3242C994.906 85.28 993.178 85.1031 991.436 85.1768C990.572 85.1915 989.693 85.1915 988.829 85.1768C987.966 85.1768 987.087 85.2653 986.223 85.2947C985.36 85.3537 984.481 85.3685 983.617 85.4569L981.026 85.7665C977.556 86.0467 974.19 86.7543 970.825 87.6242C967.414 88.4351 964.183 89.585 960.743 90.735C957.213 91.8997 953.386 92.6074 949.544 92.0766C947.652 91.767 945.746 91.1036 944.242 89.9241C942.708 88.7594 941.666 87.1671 941.025 85.5011C942.083 86.9607 943.393 88.1549 944.897 88.8921C946.401 89.6293 948.054 89.9389 949.708 89.9241C953.043 89.9241 956.349 88.8626 959.477 87.5357C962.664 86.0319 966.163 84.705 969.648 83.614C973.163 82.5672 976.826 81.7711 980.49 81.3878C987.802 80.6211 995.278 80.798 1002.44 82.4788C1006.03 83.2307 1009.53 84.3807 1012.88 85.796C1016.25 87.2409 1019.49 88.9216 1022.32 91.1773Z" fill="#B1B1B1"/>
</g>
<g clip-path="url(#clip4_2_312)">
<g style="mix-blend-mode:multiply">
<g style="mix-blend-mode:multiply">
<path d="M405.321 154.943C434.387 154.943 457.95 131.616 457.95 102.84C457.95 74.0646 434.387 50.7373 405.321 50.7373C376.255 50.7373 352.692 74.0646 352.692 102.84C352.692 131.616 376.255 154.943 405.321 154.943Z" fill="white"/>
</g>
<g style="mix-blend-mode:multiply">
<path d="M405.321 155.68C375.894 155.68 351.948 131.973 351.948 102.84C351.948 73.7073 375.894 50 405.321 50C434.748 50 458.695 73.7073 458.695 102.84C458.695 131.973 434.748 155.68 405.321 155.68ZM405.321 51.4743C376.713 51.4743 353.437 74.5181 353.437 102.84C353.437 131.162 376.713 154.206 405.321 154.206C433.929 154.206 457.206 131.162 457.206 102.84C457.206 74.5181 433.929 51.4743 405.321 51.4743Z" fill="#B1B1B1"/>
</g>
<g style="mix-blend-mode:multiply">
<path d="M412.827 56.0302C413.184 56.0597 413.497 56.0745 413.75 56.0745L413.72 56.3104C413.303 56.3693 412.946 56.6789 412.663 57.2687L409.119 64.2865L409.015 64.2717L408.925 64.257L406.676 56.4283C406.528 55.9123 406.274 55.6322 405.917 55.5879L405.947 55.3521C406.274 55.411 406.706 55.4553 407.242 55.5142C407.942 55.5732 408.464 55.6174 408.806 55.6174L408.776 55.8533C408.464 55.8386 408.24 55.8533 408.106 55.8976C407.972 55.9418 407.898 56.0597 407.883 56.2072C407.868 56.3399 407.898 56.5315 407.972 56.7822L409.625 62.7679L412.082 57.8732C412.291 57.4751 412.395 57.1507 412.425 56.9148C412.455 56.6642 412.38 56.4725 412.216 56.3399C412.053 56.2072 411.784 56.1334 411.427 56.0892L411.457 55.8533C411.889 55.927 412.35 55.986 412.827 56.0302Z" fill="#B1B1B1"/>
</g>
<g style="mix-blend-mode:multiply">
<path d="M422.835 59.1409C422.686 59.1409 422.567 59.1999 422.477 59.3178C422.388 59.4358 422.284 59.6274 422.18 59.9075L420.05 65.51C419.946 65.7901 419.886 66.0112 419.886 66.1587C419.886 66.3061 419.931 66.4241 420.035 66.5125C420.139 66.601 420.333 66.7042 420.601 66.8221L420.512 67.0433C420.169 66.8958 419.693 66.7042 419.082 66.4683C418.427 66.2177 417.935 66.0555 417.608 65.9523L417.697 65.7311C417.98 65.8196 418.189 65.8638 418.323 65.8638C418.457 65.8638 418.591 65.8048 418.68 65.6869C418.769 65.5689 418.873 65.3773 418.978 65.0972L421.107 59.4947C421.212 59.2146 421.271 58.9935 421.271 58.846C421.271 58.6986 421.227 58.5806 421.122 58.4922C421.018 58.4037 420.824 58.3005 420.556 58.1826L420.646 57.9614C420.958 58.0941 421.435 58.2858 422.09 58.5364C422.701 58.7723 423.192 58.9345 423.55 59.0377L423.46 59.2588C423.192 59.1704 422.984 59.1261 422.835 59.1409Z" fill="#B1B1B1"/>
</g>
<g style="mix-blend-mode:multiply">
<path d="M436.089 66.9401C435.94 66.9106 435.791 66.9549 435.657 67.0433C435.523 67.1318 435.359 67.3087 435.18 67.5593L430.862 73.3535L430.638 73.1913L431.219 63.8735L427.392 69.0042C427.213 69.2548 427.094 69.4612 427.034 69.6234C426.975 69.7856 427.004 69.933 427.079 70.0804C427.153 70.2279 427.332 70.39 427.585 70.5965L427.436 70.7881C427.213 70.5965 426.885 70.3458 426.453 70.0215C426.066 69.7413 425.753 69.5202 425.515 69.3875L425.664 69.1958C425.902 69.358 426.096 69.4465 426.245 69.4612C426.394 69.4907 426.543 69.4465 426.677 69.358C426.811 69.2548 426.975 69.0926 427.153 68.842L430.668 64.1241C430.847 63.8735 430.966 63.6818 431.01 63.5491C431.055 63.4165 431.04 63.2838 430.966 63.1658C430.891 63.0479 430.742 62.9004 430.504 62.7088L430.653 62.5171C430.847 62.694 431.144 62.9299 431.547 63.21C431.844 63.4312 432.098 63.6081 432.336 63.7408L431.859 71.5548L434.957 67.3972C435.136 67.1465 435.27 66.9401 435.314 66.7779C435.359 66.6158 435.344 66.4683 435.27 66.3209C435.195 66.1735 435.016 65.9965 434.763 65.8049L434.912 65.6132C435.136 65.8049 435.463 66.0555 435.895 66.3799C436.282 66.66 436.595 66.8811 436.833 67.0138L436.684 67.2055C436.431 67.0581 436.238 66.9549 436.089 66.9401Z" fill="#B1B1B1"/>
</g>
<g style="mix-blend-mode:multiply">
<path d="M441.078 73.5893C441.465 73.3091 441.867 72.9995 442.299 72.6162C442.671 73.1765 443.327 74.1053 444.265 75.4174C445.203 76.7149 445.873 77.6289 446.275 78.1597C445.769 78.4546 445.337 78.7199 444.95 78.9853C444.622 79.2212 444.354 79.4276 444.16 79.5898L443.997 79.3686C444.473 78.9558 444.801 78.6167 444.994 78.3661C445.188 78.1155 445.262 77.8501 445.248 77.57C445.233 77.2898 445.054 76.9507 444.771 76.5379L444.384 76.0072L438.74 79.9879C438.472 80.1795 438.278 80.3565 438.189 80.4891C438.099 80.6218 438.069 80.784 438.129 80.9609C438.174 81.1231 438.308 81.359 438.501 81.6539L438.308 81.8013C438.084 81.4475 437.742 80.9462 437.295 80.3417C436.819 79.6783 436.461 79.2065 436.223 78.9116L436.416 78.7642C436.64 79.0443 436.819 79.236 436.967 79.3392C437.116 79.4424 437.265 79.4719 437.429 79.4276C437.593 79.3834 437.816 79.2654 438.084 79.0738L443.729 75.0931L443.341 74.5623C443.043 74.1495 442.776 73.8989 442.522 73.7809C442.269 73.663 441.986 73.6482 441.688 73.7514C441.391 73.8547 440.959 74.0463 440.408 74.3559L440.244 74.1348C440.467 74.0168 440.735 73.8399 441.078 73.5893Z" fill="#B1B1B1"/>
</g>
<g style="mix-blend-mode:multiply">
<path d="M443.937 94.0532L443.698 94.1269C443.609 93.8026 443.49 93.3898 443.311 92.8885C443.088 92.2398 442.909 91.7532 442.775 91.4289L443.013 91.3552C443.118 91.6353 443.237 91.8417 443.326 91.9449C443.43 92.0481 443.564 92.0776 443.713 92.0186C443.847 91.9744 444.011 91.8712 444.205 91.709L445.858 90.3674L444.92 87.6104L443.535 87.5514C443.088 87.5219 442.745 87.5514 442.507 87.6399C442.269 87.7283 442.12 87.861 442.06 88.0527C442.016 88.2443 442.045 88.5245 442.15 88.8636L441.911 88.9373C441.792 88.495 441.643 88.0527 441.494 87.6104C441.375 87.2713 441.271 86.9912 441.167 86.77L441.405 86.6963C441.613 87.0501 442.06 87.2418 442.715 87.2565L450.638 87.6104L450.698 87.7873L444.383 92.9917C443.996 93.3603 443.847 93.6994 443.937 94.0532ZM449.104 87.7873L445.202 87.6251L446.081 90.2199L449.104 87.7873Z" fill="#B1B1B1"/>
</g>
<g style="mix-blend-mode:multiply">
<path d="M445.024 105.332C445.173 105.273 445.247 105.199 445.247 105.096C445.247 105.037 445.232 104.993 445.203 104.949C445.173 104.905 445.113 104.816 445.024 104.698C444.8 104.418 444.637 104.123 444.517 103.828C444.398 103.533 444.339 103.194 444.339 102.826C444.324 102 444.488 101.292 444.815 100.688C445.158 100.083 445.634 99.6264 446.29 99.302C446.93 98.9777 447.704 98.8155 448.613 98.8008C449.551 98.786 450.37 98.9335 451.07 99.2578C451.77 99.5822 452.321 100.025 452.708 100.614C453.095 101.204 453.304 101.867 453.304 102.605C453.304 102.929 453.274 103.224 453.215 103.474C453.155 103.725 453.066 103.946 452.961 104.138C452.857 104.33 452.723 104.551 452.544 104.787C452.47 104.89 452.425 104.978 452.425 105.037C452.425 105.185 452.678 105.288 453.17 105.332V105.612C452.649 105.583 451.71 105.583 450.37 105.612V105.332C450.802 105.258 451.159 105.17 451.442 105.081C451.725 104.993 451.964 104.86 452.172 104.698C452.455 104.462 452.693 104.153 452.857 103.769C453.021 103.386 453.095 103.003 453.095 102.59C453.081 102.059 452.902 101.602 452.544 101.204C452.187 100.806 451.681 100.511 451.04 100.29C450.385 100.083 449.64 99.9802 448.777 99.995C447.794 100.01 447.004 100.128 446.379 100.349C445.754 100.57 445.307 100.894 445.009 101.322C444.711 101.749 444.577 102.295 444.592 102.958C444.607 103.445 444.741 103.858 444.994 104.212C445.098 104.359 445.188 104.448 445.292 104.492C445.381 104.536 445.515 104.551 445.679 104.551L446.856 104.536C447.198 104.536 447.436 104.492 447.6 104.433C447.749 104.374 447.868 104.256 447.913 104.079C447.972 103.917 448.002 103.651 448.002 103.298H448.241C448.226 103.696 448.211 104.256 448.226 105.008C448.241 105.568 448.255 105.996 448.285 106.261H448.047C448.032 106.069 447.987 105.937 447.943 105.863C447.898 105.789 447.794 105.73 447.66 105.701C447.526 105.671 447.302 105.656 446.99 105.671L444.577 105.715V105.48C444.711 105.421 444.875 105.391 445.024 105.332Z" fill="#B1B1B1"/>
</g>
<g style="mix-blend-mode:multiply">
<path d="M443.252 117.878C442.82 117.746 442.314 117.613 441.733 117.495C441.927 116.979 442.21 116.109 442.612 114.871C443.088 113.396 443.431 112.276 443.639 111.524L443.878 111.598C443.803 111.878 443.773 112.084 443.773 112.232C443.788 112.379 443.848 112.482 443.967 112.571C444.086 112.659 444.295 112.748 444.578 112.836L450.341 114.635C450.639 114.723 450.847 114.767 450.996 114.767C451.145 114.767 451.264 114.708 451.354 114.591C451.443 114.473 451.532 114.281 451.636 114.016L451.875 114.089C451.607 114.841 451.249 115.947 450.773 117.421C450.415 118.542 450.162 119.353 450.043 119.839C449.552 119.633 449.105 119.456 448.688 119.338C448.39 119.249 448.137 119.176 447.958 119.146L448.048 118.881C448.569 118.984 448.971 119.028 449.239 119.028C449.507 119.028 449.73 118.94 449.909 118.763C450.088 118.601 450.237 118.306 450.371 117.908L450.669 116.949C450.758 116.669 450.803 116.463 450.788 116.33C450.773 116.198 450.728 116.08 450.609 115.991C450.49 115.903 450.296 115.814 449.998 115.726L447.258 114.871L447.02 115.637C446.901 116.021 446.931 116.315 447.124 116.522C447.318 116.728 447.526 116.876 447.765 116.979C448.003 117.082 448.152 117.156 448.211 117.185L448.122 117.451C447.75 117.303 447.392 117.171 447.035 117.067L446.484 116.905C446.097 116.787 445.531 116.625 444.816 116.463L444.905 116.198C444.965 116.212 445.158 116.242 445.486 116.315C445.814 116.374 446.097 116.345 446.32 116.227C446.543 116.109 446.692 115.888 446.797 115.578L447.035 114.812L444.235 113.942C443.937 113.853 443.729 113.809 443.58 113.809C443.431 113.809 443.312 113.868 443.237 113.986C443.148 114.104 443.059 114.296 442.969 114.576L442.701 115.416C442.552 115.903 442.493 116.286 442.552 116.566C442.597 116.861 442.746 117.097 442.999 117.303C443.252 117.495 443.639 117.716 444.161 117.952L444.071 118.217C443.893 118.085 443.61 117.996 443.252 117.878Z" fill="#B1B1B1"/>
</g>
<g style="mix-blend-mode:multiply">
<path d="M439.007 135.968C439.067 135.836 439.052 135.703 438.992 135.57C438.933 135.437 438.784 135.275 438.561 135.054L434.182 130.911C433.959 130.705 433.78 130.572 433.646 130.513C433.512 130.454 433.378 130.454 433.244 130.513C433.11 130.572 432.946 130.705 432.738 130.911L432.559 130.749C432.842 130.498 433.199 130.13 433.661 129.673C434.138 129.172 434.495 128.788 434.718 128.538L434.897 128.7C434.704 128.921 434.584 129.098 434.525 129.216C434.465 129.348 434.48 129.481 434.54 129.614C434.599 129.747 434.748 129.909 434.972 130.13L439.35 134.273C439.573 134.479 439.752 134.612 439.886 134.671C440.02 134.73 440.154 134.73 440.288 134.671C440.422 134.612 440.586 134.479 440.794 134.273L440.973 134.435C440.72 134.656 440.348 135.025 439.871 135.526C439.409 135.998 439.067 136.381 438.829 136.661L438.65 136.499C438.829 136.278 438.948 136.101 439.007 135.968Z" fill="#B1B1B1"/>
</g>
<g style="mix-blend-mode:multiply">
<path d="M426.602 144.962C426.692 144.829 426.706 144.696 426.677 144.534C426.647 144.372 426.543 144.166 426.379 143.885L422.685 137.679L422.924 137.531L431.353 141.703L428.091 136.219C427.928 135.954 427.794 135.762 427.66 135.659C427.525 135.555 427.377 135.511 427.213 135.526C427.049 135.541 426.826 135.629 426.543 135.777L426.409 135.57C426.677 135.452 427.034 135.246 427.496 134.98C427.913 134.73 428.225 134.538 428.449 134.376L428.568 134.582C428.33 134.73 428.166 134.877 428.091 135.01C428.002 135.143 427.987 135.275 428.017 135.438C428.047 135.6 428.151 135.806 428.315 136.086L431.323 141.143C431.472 141.409 431.606 141.585 431.725 141.674C431.844 141.762 431.963 141.807 432.112 141.777C432.246 141.748 432.455 141.674 432.708 141.541L432.827 141.748C432.589 141.866 432.261 142.043 431.829 142.293C431.517 142.47 431.249 142.647 431.025 142.794L423.951 139.3L426.602 143.753C426.766 144.018 426.9 144.21 427.034 144.313C427.153 144.416 427.302 144.46 427.481 144.446C427.66 144.431 427.883 144.342 428.166 144.195L428.285 144.401C428.017 144.519 427.66 144.726 427.198 144.991C426.781 145.242 426.468 145.433 426.245 145.596L426.126 145.389C426.349 145.227 426.513 145.08 426.602 144.962Z" fill="#B1B1B1"/>
</g>
<g style="mix-blend-mode:multiply">
<path d="M418.412 146.893C418.516 147.35 418.65 147.851 418.829 148.382C418.158 148.5 417.042 148.736 415.463 149.06C413.884 149.399 412.782 149.65 412.127 149.812C412.053 149.237 411.978 148.736 411.874 148.279C411.785 147.881 411.71 147.556 411.621 147.321L411.889 147.262C412.082 147.866 412.261 148.294 412.425 148.574C412.589 148.854 412.797 149.031 413.065 149.119C413.333 149.208 413.721 149.193 414.212 149.09L414.852 148.957L413.393 142.249C413.319 141.924 413.244 141.689 413.14 141.556C413.036 141.423 412.916 141.335 412.738 141.32C412.559 141.29 412.291 141.32 411.934 141.379L411.889 141.143C412.306 141.084 412.902 140.966 413.646 140.804C414.435 140.627 415.031 140.494 415.403 140.391L415.448 140.627C415.091 140.715 414.852 140.804 414.703 140.892C414.555 140.981 414.465 141.114 414.435 141.276C414.406 141.438 414.421 141.689 414.495 142.013L415.954 148.721L416.595 148.588C417.086 148.485 417.444 148.338 417.652 148.146C417.861 147.954 417.98 147.704 418.01 147.394C418.039 147.085 418.024 146.613 417.95 145.994L418.218 145.935C418.263 146.171 418.322 146.495 418.412 146.893Z" fill="#B1B1B1"/>
</g>
<g style="mix-blend-mode:multiply">
<path d="M398.65 142.75C398.694 142.293 398.709 141.777 398.709 141.202C399.26 141.276 400.183 141.364 401.494 141.482C403.043 141.615 404.219 141.718 405.023 141.762L405.009 141.998C404.711 141.984 404.502 141.998 404.368 142.043C404.234 142.087 404.13 142.161 404.07 142.293C404.011 142.426 403.966 142.647 403.936 142.942L403.4 148.913C403.37 149.208 403.385 149.429 403.415 149.576C403.445 149.724 403.534 149.827 403.668 149.886C403.802 149.945 404.011 150.004 404.294 150.033L404.279 150.269C403.49 150.181 402.313 150.063 400.764 149.93C399.573 149.827 398.724 149.768 398.218 149.739C398.322 149.223 398.396 148.751 398.426 148.323C398.456 148.014 398.471 147.763 398.456 147.571L398.739 147.601C398.754 148.132 398.784 148.515 398.858 148.78C398.918 149.046 399.052 149.237 399.26 149.37C399.454 149.503 399.781 149.591 400.198 149.621L401.211 149.709C401.509 149.739 401.717 149.724 401.851 149.694C401.985 149.665 402.09 149.576 402.149 149.444C402.209 149.311 402.253 149.09 402.283 148.795L402.536 145.964L401.732 145.891C401.33 145.861 401.047 145.95 400.883 146.185C400.734 146.421 400.615 146.657 400.571 146.908C400.511 147.159 400.481 147.321 400.466 147.394L400.183 147.365C400.243 146.967 400.288 146.598 400.332 146.23L400.377 145.655C400.407 145.242 400.437 144.682 400.466 143.944L400.749 143.974C400.749 144.033 400.764 144.225 400.764 144.564C400.779 144.903 400.854 145.168 401.032 145.345C401.196 145.537 401.449 145.64 401.777 145.669L402.581 145.743L402.834 142.853C402.864 142.559 402.849 142.337 402.819 142.19C402.79 142.057 402.7 141.954 402.566 141.895C402.432 141.836 402.224 141.792 401.941 141.762L401.047 141.689C400.541 141.644 400.154 141.674 399.871 141.792C399.603 141.895 399.394 142.102 399.245 142.382C399.096 142.662 398.977 143.089 398.858 143.65L398.575 143.62C398.575 143.399 398.605 143.104 398.65 142.75Z" fill="#B1B1B1"/>
</g>
<g style="mix-blend-mode:multiply">
<path d="M386.93 137.28C387.153 137.236 387.406 137.28 387.674 137.398C387.987 137.531 388.195 137.723 388.315 137.973C388.434 138.239 388.449 138.607 388.374 139.094L388.151 140.303C388.076 140.73 388.032 141.055 388.017 141.305C388.002 141.541 388.061 141.762 388.166 141.954C388.27 142.146 388.463 142.293 388.746 142.411L389.819 142.853L390.906 140.288C391.025 140.008 391.084 139.802 391.099 139.654C391.114 139.507 391.055 139.389 390.95 139.286C390.846 139.182 390.668 139.079 390.399 138.961L390.489 138.74C390.831 138.902 391.293 139.109 391.904 139.359C392.544 139.625 393.035 139.816 393.363 139.92L393.274 140.141C392.991 140.037 392.782 139.993 392.648 139.978C392.499 139.978 392.38 140.023 392.291 140.141C392.187 140.244 392.082 140.436 391.963 140.716L389.625 146.244C389.506 146.525 389.446 146.731 389.431 146.878C389.417 147.026 389.476 147.144 389.58 147.247C389.685 147.35 389.863 147.453 390.131 147.586L390.042 147.807C389.729 147.66 389.283 147.453 388.687 147.203C388.389 147.085 388.076 146.952 387.719 146.805C387.361 146.657 387.123 146.569 386.989 146.51C386.408 146.259 385.947 145.979 385.604 145.64C385.262 145.301 385.068 144.947 384.979 144.564C384.889 144.18 384.934 143.812 385.098 143.443C385.217 143.148 385.411 142.883 385.679 142.647C385.947 142.411 386.289 142.234 386.706 142.146C387.123 142.057 387.629 142.072 388.18 142.205L388.046 142.131C387.734 141.939 387.495 141.748 387.347 141.541C387.198 141.35 387.093 141.128 387.064 140.893C387.019 140.657 387.034 140.362 387.093 140.008L387.302 138.755C387.347 138.504 387.376 138.312 387.376 138.165C387.376 138.018 387.361 137.9 387.317 137.811C387.272 137.723 387.198 137.649 387.093 137.62C386.974 137.561 386.855 137.561 386.751 137.59C386.647 137.62 386.498 137.693 386.304 137.796L386.185 137.605C386.453 137.443 386.706 137.325 386.93 137.28ZM387.674 142.529C387.317 142.573 387.034 142.706 386.81 142.927C386.587 143.148 386.393 143.443 386.23 143.826C385.976 144.431 385.917 144.962 386.081 145.389C386.245 145.817 386.647 146.171 387.317 146.451C387.555 146.554 387.734 146.598 387.883 146.583C388.017 146.583 388.136 146.525 388.24 146.407C388.344 146.289 388.449 146.097 388.553 145.832L389.714 143.089L388.955 142.78C388.463 142.573 388.032 142.485 387.674 142.529Z" fill="#B1B1B1"/>
</g>
<g style="mix-blend-mode:multiply">
<path d="M375.313 139.285C375.447 139.33 375.581 139.3 375.701 139.226C375.82 139.153 375.984 138.99 376.177 138.755L379.915 134.037C380.109 133.801 380.228 133.609 380.273 133.476C380.317 133.344 380.302 133.211 380.228 133.093C380.153 132.975 380.004 132.813 379.781 132.621L379.93 132.43C380.213 132.68 380.6 133.005 381.121 133.403C381.672 133.83 382.089 134.14 382.372 134.332L382.223 134.523C381.985 134.346 381.792 134.243 381.657 134.214C381.523 134.169 381.389 134.184 381.27 134.273C381.151 134.346 380.987 134.508 380.794 134.744L377.056 139.462C376.862 139.698 376.743 139.89 376.698 140.022C376.654 140.155 376.669 140.288 376.743 140.406C376.818 140.524 376.966 140.686 377.19 140.878L377.041 141.069C376.788 140.848 376.386 140.524 375.835 140.081C375.313 139.683 374.896 139.374 374.599 139.167L374.747 138.976C375.001 139.138 375.179 139.241 375.313 139.285Z" fill="#B1B1B1"/>
</g>
<g style="mix-blend-mode:multiply">
<path d="M365.693 128.789C365.634 128.125 365.783 127.462 366.125 126.828C366.483 126.179 367.019 125.604 367.763 125.058C368.493 124.542 369.223 124.203 369.982 124.071C370.742 123.938 371.442 123.982 372.097 124.233C372.752 124.483 373.303 124.911 373.735 125.516C374.197 126.135 374.45 126.783 374.509 127.447C374.569 128.11 374.42 128.774 374.078 129.408C373.72 130.056 373.184 130.632 372.439 131.177C371.71 131.693 370.98 132.032 370.221 132.165C369.476 132.297 368.761 132.253 368.106 132.003C367.451 131.752 366.9 131.324 366.468 130.735C366.006 130.101 365.753 129.452 365.693 128.789ZM367.927 131.413C368.448 131.516 369.044 131.472 369.699 131.265C370.355 131.059 371.01 130.72 371.695 130.219C372.38 129.732 372.916 129.201 373.288 128.641C373.676 128.081 373.884 127.521 373.914 126.99C373.958 126.459 373.824 125.987 373.541 125.589C373.229 125.177 372.827 124.911 372.291 124.808C371.769 124.705 371.174 124.749 370.518 124.955C369.863 125.162 369.208 125.501 368.523 125.987C367.838 126.474 367.302 127.005 366.929 127.58C366.542 128.14 366.334 128.685 366.289 129.231C366.244 129.762 366.378 130.233 366.661 130.631C366.974 131.044 367.391 131.31 367.927 131.413Z" fill="#B1B1B1"/>
</g>
<g style="mix-blend-mode:multiply">
<path d="M366.84 111.037C367.018 111.17 367.153 111.391 367.242 111.686C367.346 111.996 367.331 112.291 367.212 112.541C367.093 112.807 366.81 113.057 366.378 113.308L365.291 113.912C364.919 114.134 364.636 114.31 364.442 114.458C364.249 114.605 364.115 114.782 364.04 114.989C363.966 115.195 363.966 115.431 364.055 115.726L364.397 116.832L367.078 116.006C367.376 115.917 367.57 115.829 367.689 115.741C367.808 115.652 367.867 115.534 367.882 115.401C367.897 115.269 367.852 115.048 367.778 114.767L368.016 114.694C368.106 115.048 368.24 115.549 368.448 116.168C368.657 116.832 368.82 117.318 368.94 117.628L368.701 117.701C368.597 117.421 368.508 117.23 368.418 117.126C368.329 117.023 368.21 116.949 368.061 116.949C367.912 116.949 367.689 116.979 367.406 117.082L361.628 118.851C361.33 118.94 361.136 119.028 361.017 119.117C360.898 119.205 360.838 119.323 360.823 119.456C360.808 119.603 360.853 119.81 360.928 120.09L360.689 120.164C360.615 119.839 360.481 119.367 360.287 118.748C360.198 118.453 360.079 118.114 359.96 117.76C359.84 117.407 359.751 117.156 359.706 117.023C359.513 116.419 359.453 115.888 359.498 115.416C359.543 114.944 359.692 114.561 359.93 114.251C360.168 113.942 360.481 113.735 360.868 113.618C361.166 113.529 361.493 113.5 361.851 113.544C362.208 113.588 362.551 113.735 362.908 114.001C363.266 114.266 363.563 114.65 363.817 115.166L363.802 115.018C363.757 114.65 363.742 114.355 363.802 114.104C363.861 113.853 363.966 113.647 364.115 113.47C364.278 113.293 364.517 113.101 364.829 112.925L365.931 112.276C366.155 112.158 366.333 112.04 366.438 111.952C366.542 111.863 366.631 111.775 366.676 111.686C366.721 111.598 366.721 111.494 366.691 111.391C366.646 111.259 366.587 111.17 366.497 111.111C366.408 111.052 366.259 110.978 366.051 110.905L366.125 110.684C366.423 110.787 366.676 110.905 366.84 111.037ZM363.281 114.989C363.027 114.753 362.73 114.62 362.417 114.591C362.104 114.561 361.747 114.605 361.345 114.738C360.704 114.93 360.272 115.239 360.034 115.637C359.796 116.035 359.796 116.581 360.004 117.244C360.079 117.48 360.168 117.657 360.257 117.76C360.347 117.864 360.481 117.923 360.63 117.923C360.779 117.923 361.002 117.878 361.27 117.805L364.129 116.92L363.891 116.139C363.742 115.608 363.534 115.225 363.281 114.989Z" fill="#B1B1B1"/>
</g>
<g style="mix-blend-mode:multiply">
<path d="M365.693 97.046C366.259 96.7953 366.601 96.3236 366.75 95.6159C366.795 95.3505 366.795 95.0851 366.721 94.8345C366.646 94.5838 366.512 94.3627 366.304 94.171C366.095 93.9794 365.812 93.8467 365.44 93.7877C365.127 93.7287 364.844 93.7582 364.576 93.8614C364.308 93.9646 364.04 94.1268 363.787 94.348C363.534 94.5691 363.236 94.864 362.908 95.2326C362.536 95.6454 362.208 95.9845 361.925 96.2204C361.642 96.471 361.33 96.6479 360.987 96.7806C360.645 96.9133 360.257 96.928 359.826 96.8543C359.379 96.7659 359.006 96.6037 358.738 96.3383C358.47 96.0729 358.277 95.7633 358.187 95.3947C358.098 95.0262 358.098 94.6428 358.173 94.23C358.217 93.9794 358.277 93.7877 358.351 93.6108C358.426 93.4339 358.5 93.3012 358.589 93.198C358.679 93.0948 358.768 92.9768 358.887 92.8589C359.036 92.6967 359.111 92.5788 359.141 92.4903C359.155 92.4166 359.126 92.3576 359.051 92.2986C358.977 92.2397 358.843 92.1954 358.664 92.1365L358.709 91.8711C359.17 91.989 359.974 92.1659 361.151 92.3871L361.106 92.6525C360.689 92.6082 360.302 92.623 359.915 92.7114C359.543 92.7852 359.215 92.9473 358.947 93.198C358.679 93.4339 358.5 93.773 358.426 94.1858C358.366 94.4659 358.381 94.7165 358.455 94.9672C358.53 95.2178 358.664 95.4095 358.843 95.5717C359.036 95.7338 359.26 95.837 359.528 95.896C359.96 95.9697 360.332 95.9107 360.645 95.7043C360.957 95.4979 361.255 95.2326 361.538 94.9229C361.821 94.6133 362 94.4069 362.104 94.3037C362.521 93.8614 362.864 93.5223 363.146 93.2717C363.429 93.0211 363.742 92.8441 364.085 92.7262C364.427 92.6082 364.8 92.5935 365.202 92.6672C365.693 92.7557 366.095 92.9473 366.393 93.2275C366.691 93.5223 366.884 93.8614 366.989 94.2742C367.093 94.6871 367.093 95.1294 367.004 95.6011C366.929 95.9845 366.84 96.2793 366.706 96.5152C366.587 96.7511 366.423 96.9575 366.244 97.1492C366.095 97.3114 366.021 97.4293 365.991 97.5178C365.976 97.5915 366.006 97.6505 366.08 97.7094C366.155 97.7684 366.289 97.8274 366.467 97.8716L366.423 98.137C365.991 98.019 365.038 97.8274 363.563 97.562L363.608 97.2966C364.442 97.3703 365.127 97.2966 365.693 97.046Z" fill="#B1B1B1"/>
</g>
<g style="mix-blend-mode:multiply">
<path d="M362.744 84.6175C362.327 84.3964 361.851 84.19 361.315 83.9836C361.642 83.4086 362.193 82.4061 362.938 80.976C363.683 79.5606 364.204 78.558 364.487 77.9536C364.978 78.2632 365.425 78.5286 365.827 78.735C366.185 78.9266 366.497 79.0593 366.736 79.1625L366.602 79.4132C366.006 79.1773 365.559 79.0298 365.246 78.9856C364.934 78.9266 364.651 78.9856 364.412 79.133C364.174 79.2805 363.936 79.5753 363.712 80.0176L363.415 80.6074L369.565 83.7772C369.863 83.9394 370.101 84.0131 370.265 84.0278C370.429 84.0426 370.578 83.9983 370.712 83.8804C370.846 83.7624 370.995 83.5413 371.173 83.2317L371.397 83.3496C371.173 83.7182 370.89 84.2342 370.533 84.9124C370.161 85.6201 369.893 86.1656 369.729 86.5047L369.506 86.3867C369.654 86.0624 369.759 85.8118 369.774 85.6496C369.803 85.4727 369.759 85.3252 369.64 85.1925C369.52 85.0599 369.327 84.9272 369.029 84.765L362.878 81.5804L362.566 82.1554C362.327 82.5977 362.223 82.9516 362.238 83.2317C362.253 83.5118 362.372 83.7624 362.596 83.9836C362.819 84.2047 363.191 84.4996 363.727 84.8387L363.593 85.0893C363.4 84.9714 363.102 84.8092 362.744 84.6175Z" fill="#B1B1B1"/>
</g>
<g style="mix-blend-mode:multiply">
<path d="M373.258 67.6771C373.511 67.4265 373.72 67.1906 373.869 67.0137L374.047 67.1906C373.958 67.3233 373.913 67.515 373.928 67.7361C373.943 67.9573 374.003 68.2669 374.122 68.6355L375.477 72.6309L377.056 74.1789C377.279 74.3853 377.443 74.5328 377.577 74.5918C377.711 74.6507 377.845 74.6507 377.979 74.5918C378.113 74.5328 378.277 74.4001 378.5 74.2084L378.679 74.3853C378.396 74.636 378.024 74.9898 377.562 75.4469C377.071 75.9334 376.713 76.3167 376.49 76.5674L376.311 76.3904C376.505 76.1693 376.639 76.0071 376.698 75.8744C376.758 75.7417 376.758 75.609 376.683 75.4764C376.624 75.3437 376.475 75.1667 376.266 74.9603L374.956 73.6777L369.982 72.2328C369.684 72.1444 369.461 72.1149 369.312 72.1296C369.163 72.1444 369.059 72.1886 368.984 72.2623L368.805 72.0854C369.044 71.879 369.312 71.6431 369.58 71.363C370.131 70.8027 370.533 70.4046 370.756 70.1393L370.935 70.3162C370.533 70.7143 370.444 71.0239 370.667 71.245C370.756 71.3335 370.875 71.3925 371.054 71.4514L375.239 72.7341L374.137 69.4758C373.973 69.004 373.809 68.6797 373.63 68.5175C373.467 68.3553 373.288 68.3111 373.094 68.3701C372.901 68.429 372.677 68.5765 372.409 68.8271L372.231 68.6502C372.588 68.3258 372.916 68.0015 373.258 67.6771Z" fill="#B1B1B1"/>
</g>
<g style="mix-blend-mode:multiply">
<path d="M382.268 61.7358C382.179 61.839 382.134 61.9717 382.164 62.1191C382.194 62.2665 382.268 62.4729 382.417 62.7383L385.291 68.0164C385.44 68.2818 385.56 68.4587 385.679 68.5619C385.783 68.6651 385.917 68.6946 386.051 68.6799C386.185 68.6651 386.393 68.5767 386.647 68.444L387.436 68.0164C387.883 67.7805 388.195 67.5299 388.359 67.2792C388.523 67.0286 388.583 66.7485 388.538 66.4094C388.493 66.0703 388.359 65.6427 388.121 65.0825L388.374 64.9498C388.478 65.1857 388.627 65.4806 388.821 65.8344C389.044 66.2325 389.312 66.6748 389.64 67.1613C389.149 67.3972 388.315 67.8247 387.168 68.444C385.798 69.1811 384.755 69.7414 384.07 70.1395L383.951 69.933C384.204 69.7856 384.383 69.6529 384.472 69.5497C384.562 69.4465 384.606 69.3138 384.577 69.1664C384.547 69.019 384.472 68.8126 384.323 68.5472L381.419 63.2691C381.271 63.0037 381.151 62.8268 381.032 62.7236C380.928 62.6204 380.794 62.5909 380.66 62.6056C380.511 62.6204 380.317 62.6941 380.049 62.8268L379.945 62.6056C380.258 62.4729 380.72 62.237 381.33 61.8979C381.911 61.5883 382.358 61.3377 382.67 61.146L382.79 61.3524C382.536 61.4999 382.373 61.6326 382.268 61.7358Z" fill="#B1B1B1"/>
</g>
<g style="mix-blend-mode:multiply">
<path d="M400.407 62.6792C400.496 63.1215 400.63 63.6227 400.794 64.183C400.243 64.2714 399.335 64.4336 398.054 64.6843C396.52 64.9791 395.373 65.215 394.584 65.3919L394.539 65.156C394.822 65.0823 395.031 65.0233 395.15 64.9349C395.269 64.8612 395.344 64.7432 395.359 64.6105C395.373 64.4631 395.359 64.242 395.299 63.9471L394.137 58.0645C394.078 57.7697 394.018 57.5633 393.929 57.4306C393.84 57.2979 393.75 57.2242 393.601 57.2094C393.467 57.1799 393.244 57.1947 392.961 57.2389L392.916 57.003C393.705 56.8703 394.867 56.6639 396.386 56.369C397.563 56.1332 398.397 55.971 398.873 55.853C398.918 56.3838 398.992 56.8556 399.067 57.2684C399.126 57.578 399.186 57.8139 399.245 57.9908L398.977 58.0498C398.814 57.5485 398.665 57.1799 398.531 56.944C398.397 56.7081 398.203 56.5607 397.98 56.487C397.741 56.4133 397.429 56.4133 396.997 56.5017L395.999 56.6934C395.716 56.7524 395.507 56.8113 395.388 56.8851C395.269 56.9588 395.195 57.062 395.165 57.2094C395.15 57.3568 395.165 57.578 395.225 57.8729L395.776 60.6741L396.565 60.5119C396.967 60.4382 397.205 60.2613 397.295 59.9959C397.384 59.7305 397.414 59.4799 397.399 59.2292C397.384 58.9786 397.369 58.8164 397.369 58.7427L397.637 58.6837C397.682 59.0818 397.741 59.4504 397.816 59.8042L397.935 60.3645C398.009 60.7625 398.143 61.3228 398.337 62.0305L398.069 62.0894C398.054 62.0305 397.994 61.8535 397.89 61.5292C397.786 61.2048 397.637 60.9837 397.414 60.851C397.19 60.7183 396.937 60.6888 396.609 60.7478L395.82 60.8952L396.386 63.7407C396.446 64.0355 396.505 64.242 396.58 64.3746C396.654 64.4926 396.758 64.5663 396.907 64.5958C397.041 64.6105 397.265 64.5958 397.548 64.5368L398.426 64.3599C398.918 64.2567 399.29 64.124 399.528 63.9471C399.767 63.7702 399.901 63.5195 399.96 63.2099C400.02 62.9003 400.02 62.458 399.975 61.883L400.243 61.824C400.288 62.0452 400.333 62.3253 400.407 62.6792Z" fill="#B1B1B1"/>
</g>
<g style="mix-blend-mode:multiply">
<path d="M390.369 118.984C389.684 118.07 389.089 117.067 388.567 115.962C388.046 114.856 387.629 113.735 387.316 112.585C386.631 107.529 386.617 102.619 387.257 97.8568C387.897 93.0947 388.94 88.4064 390.369 83.777C390.608 83.2609 391.129 83.0103 391.933 83.0103C392.737 83.0103 393.527 83.1872 394.331 83.5411C395.135 83.8949 395.79 84.3667 396.311 84.9564C396.832 85.5462 396.952 86.1654 396.669 86.7993C396.222 87.7429 395.79 89.0256 395.358 90.6179C394.926 92.2249 394.494 93.9941 394.107 95.9255C393.705 97.8568 393.363 99.8914 393.065 102C392.767 104.108 392.544 106.143 392.41 108.074C392.276 110.005 392.246 111.76 392.32 113.323C392.395 114.885 392.633 116.124 393.035 117.023C394.911 114.532 396.624 111.951 398.188 109.283C399.751 106.614 401.211 103.916 402.581 101.159C403.951 98.4171 405.262 95.6453 406.498 92.8294C407.734 90.0281 408.955 87.2564 410.146 84.5289C410.742 83.143 411.338 81.6834 411.918 80.1501C412.499 78.6021 413.259 77.2899 414.227 76.1842C414.629 75.8303 414.942 75.7124 415.15 75.8303C415.373 75.9483 415.522 76.1694 415.597 76.5085C415.671 76.8476 415.716 77.2014 415.716 77.57C415.716 77.9386 415.716 78.2335 415.716 78.4251C415.433 80.2386 415.195 82.0373 415.001 83.8212C414.808 85.6051 414.376 87.3154 413.75 88.9814C412.708 91.5909 411.65 94.171 410.548 96.7511C409.446 99.3164 408.27 101.852 407.019 104.344C405.768 106.836 404.398 109.253 402.953 111.598C401.494 113.957 399.915 116.198 398.188 118.321C396.832 120.016 395.477 120.915 394.152 121.019C392.767 121.137 391.531 120.444 390.369 118.984Z" fill="#B1B1B1"/>
<path d="M390.369 118.984C389.684 118.07 389.089 117.067 388.567 115.962C388.046 114.856 387.629 113.735 387.316 112.585C386.631 107.529 386.617 102.619 387.257 97.8568C387.897 93.0947 388.94 88.4064 390.369 83.777C390.608 83.2609 391.129 83.0103 391.933 83.0103C392.737 83.0103 393.527 83.1872 394.331 83.5411C395.135 83.8949 395.79 84.3667 396.311 84.9564C396.832 85.5462 396.952 86.1654 396.669 86.7993C396.222 87.7429 395.79 89.0256 395.358 90.6179C394.926 92.2249 394.494 93.9941 394.107 95.9255C393.705 97.8568 393.363 99.8914 393.065 102C392.767 104.108 392.544 106.143 392.41 108.074C392.276 110.005 392.246 111.76 392.32 113.323C392.395 114.885 392.633 116.124 393.035 117.023C394.911 114.532 396.624 111.951 398.188 109.283C399.751 106.614 401.211 103.916 402.581 101.159C403.951 98.4171 405.262 95.6453 406.498 92.8294C407.734 90.0281 408.955 87.2564 410.146 84.5289C410.742 83.143 411.338 81.6834 411.918 80.1501C412.499 78.6021 413.259 77.2899 414.227 76.1842C414.629 75.8303 414.942 75.7124 415.15 75.8303C415.373 75.9483 415.522 76.1694 415.597 76.5085C415.671 76.8476 415.716 77.2014 415.716 77.57C415.716 77.9386 415.716 78.2335 415.716 78.4251C415.433 80.2386 415.195 82.0373 415.001 83.8212C414.808 85.6051 414.376 87.3154 413.75 88.9814C412.708 91.5909 411.65 94.171 410.548 96.7511C409.446 99.3164 408.27 101.852 407.019 104.344C405.768 106.836 404.398 109.253 402.953 111.598C401.494 113.957 399.915 116.198 398.188 118.321C396.832 120.016 395.477 120.915 394.152 121.019C392.767 121.137 391.531 120.444 390.369 118.984Z" stroke="white" stroke-miterlimit="10"/>
</g>
<g style="mix-blend-mode:multiply">
<path d="M415.031 112.29C414.227 111.185 413.438 110.064 412.663 108.914C411.889 107.764 411.502 106.511 411.502 105.125C411.502 103.592 411.949 102.132 412.842 100.761C413.736 99.4048 414.763 98.299 415.925 97.4734C416.401 97.1638 416.893 96.8984 417.384 96.7067C417.876 96.5151 418.412 96.5298 418.978 96.7657C419.216 96.8837 419.469 96.9721 419.722 97.0311C419.975 97.0901 420.214 97.1638 420.407 97.2375C420.601 97.3112 420.824 97.4292 421.063 97.5913C421.301 97.7535 421.42 97.9599 421.42 98.2401C421.42 99.3458 421.45 100.245 421.509 100.938C421.569 101.631 421.658 102.221 421.777 102.722C421.897 103.223 422.016 103.651 422.135 104.019C422.254 104.403 422.373 104.801 422.492 105.228C422.567 105.627 422.552 105.966 422.433 106.231C422.314 106.511 422.016 106.541 421.539 106.349C420.66 106.039 420.005 105.405 419.588 104.447C419.171 103.489 418.859 102.634 418.665 101.837C418.62 101.675 418.531 101.41 418.367 101.012C418.203 100.614 418.114 100.334 418.069 100.186C417.757 100.113 417.369 100.216 416.937 100.511C416.506 100.805 416.103 101.218 415.776 101.72C415.433 102.236 415.21 102.825 415.121 103.503C415.016 104.182 415.15 104.845 415.508 105.523C415.672 105.759 415.895 106.054 416.193 106.378C416.491 106.718 416.789 107.057 417.086 107.41C417.384 107.764 417.682 108.118 417.98 108.442C418.278 108.767 418.531 109.047 418.724 109.239C418.963 109.475 419.127 109.607 419.201 109.622C419.276 109.637 419.484 109.592 419.797 109.475C420.199 109.283 420.809 109.017 421.628 108.708C422.448 108.398 423.311 108.074 424.205 107.764C425.098 107.455 425.962 107.189 426.781 106.968C427.6 106.747 428.226 106.644 428.673 106.644C428.955 106.644 429.149 106.747 429.268 106.939C429.387 107.057 429.372 107.219 429.209 107.41C429.045 107.602 428.836 107.809 428.583 108C428.33 108.192 428.047 108.369 427.779 108.531C427.496 108.693 427.317 108.782 427.243 108.826C426.558 109.224 425.709 109.666 424.667 110.167C423.624 110.654 422.731 111.141 421.971 111.612C421.897 111.686 421.748 111.774 421.524 111.848C421.301 111.922 421.137 112.01 421.018 112.084C421.494 113.146 421.837 114.074 422.031 114.841C422.224 115.608 422.299 116.345 422.239 117.067C422.18 117.775 422.031 118.497 421.792 119.235C421.554 119.972 421.226 120.812 420.839 121.756C420.273 122.67 419.707 123.54 419.127 124.365C418.546 125.191 417.905 125.943 417.176 126.621C416.461 127.299 415.672 127.83 414.838 128.213C414.004 128.611 413.08 128.803 412.083 128.803C411.517 128.803 410.981 128.729 410.459 128.597C409.938 128.464 409.506 128.169 409.149 127.741C408.225 126.754 407.719 125.677 407.6 124.513C407.481 123.348 407.585 122.198 407.898 121.048C408.136 120.34 408.434 119.692 408.791 119.087C409.67 117.583 410.638 116.315 411.695 115.269C412.768 114.237 413.87 113.234 415.031 112.29ZM417.071 114.959C416.625 115.401 416.029 116.021 415.269 116.831C414.51 117.642 413.81 118.527 413.14 119.47C412.485 120.414 411.949 121.358 411.532 122.286C411.115 123.215 411.01 124.011 411.204 124.69C412.008 124.336 412.827 123.746 413.661 122.935C414.495 122.124 415.24 121.24 415.88 120.267C416.52 119.294 416.967 118.335 417.22 117.392C417.474 116.433 417.429 115.622 417.071 114.959Z" fill="#B1B1B1"/>
<path d="M415.031 112.29C414.227 111.185 413.438 110.064 412.663 108.914C411.889 107.764 411.502 106.511 411.502 105.125C411.502 103.592 411.949 102.132 412.842 100.761C413.736 99.4048 414.763 98.299 415.925 97.4734C416.401 97.1638 416.893 96.8984 417.384 96.7067C417.876 96.5151 418.412 96.5298 418.978 96.7657C419.216 96.8837 419.469 96.9721 419.722 97.0311C419.975 97.0901 420.214 97.1638 420.407 97.2375C420.601 97.3112 420.824 97.4292 421.063 97.5913C421.301 97.7535 421.42 97.9599 421.42 98.2401C421.42 99.3458 421.45 100.245 421.509 100.938C421.569 101.631 421.658 102.221 421.777 102.722C421.897 103.223 422.016 103.651 422.135 104.019C422.254 104.403 422.373 104.801 422.492 105.228C422.567 105.627 422.552 105.966 422.433 106.231C422.314 106.511 422.016 106.541 421.539 106.349C420.66 106.039 420.005 105.405 419.588 104.447C419.171 103.489 418.859 102.634 418.665 101.837C418.62 101.675 418.531 101.41 418.367 101.012C418.203 100.614 418.114 100.334 418.069 100.186C417.757 100.113 417.369 100.216 416.937 100.511C416.506 100.805 416.103 101.218 415.776 101.72C415.433 102.236 415.21 102.825 415.121 103.503C415.016 104.182 415.15 104.845 415.508 105.523C415.672 105.759 415.895 106.054 416.193 106.378C416.491 106.718 416.789 107.057 417.086 107.41C417.384 107.764 417.682 108.118 417.98 108.442C418.278 108.767 418.531 109.047 418.724 109.239C418.963 109.475 419.127 109.607 419.201 109.622C419.276 109.637 419.484 109.592 419.797 109.475C420.199 109.283 420.809 109.017 421.628 108.708C422.448 108.398 423.311 108.074 424.205 107.764C425.098 107.455 425.962 107.189 426.781 106.968C427.6 106.747 428.226 106.644 428.673 106.644C428.955 106.644 429.149 106.747 429.268 106.939C429.387 107.057 429.372 107.219 429.209 107.41C429.045 107.602 428.836 107.809 428.583 108C428.33 108.192 428.047 108.369 427.779 108.531C427.496 108.693 427.317 108.782 427.243 108.826C426.558 109.224 425.709 109.666 424.667 110.167C423.624 110.654 422.731 111.141 421.971 111.612C421.897 111.686 421.748 111.774 421.524 111.848C421.301 111.922 421.137 112.01 421.018 112.084C421.494 113.146 421.837 114.074 422.031 114.841C422.224 115.608 422.299 116.345 422.239 117.067C422.18 117.775 422.031 118.497 421.792 119.235C421.554 119.972 421.226 120.812 420.839 121.756C420.273 122.67 419.707 123.54 419.127 124.365C418.546 125.191 417.905 125.943 417.176 126.621C416.461 127.299 415.672 127.83 414.838 128.213C414.004 128.611 413.08 128.803 412.083 128.803C411.517 128.803 410.981 128.729 410.459 128.597C409.938 128.464 409.506 128.169 409.149 127.741C408.225 126.754 407.719 125.677 407.6 124.513C407.481 123.348 407.585 122.198 407.898 121.048C408.136 120.34 408.434 119.692 408.791 119.087C409.67 117.583 410.638 116.315 411.695 115.269C412.768 114.237 413.87 113.234 415.031 112.29ZM417.071 114.959C416.625 115.401 416.029 116.021 415.269 116.831C414.51 117.642 413.81 118.527 413.14 119.47C412.485 120.414 411.949 121.358 411.532 122.286C411.115 123.215 411.01 124.011 411.204 124.69C412.008 124.336 412.827 123.746 413.661 122.935C414.495 122.124 415.24 121.24 415.88 120.267C416.52 119.294 416.967 118.335 417.22 117.392C417.474 116.433 417.429 115.622 417.071 114.959Z" stroke="white" stroke-miterlimit="10"/>
</g>
<g style="mix-blend-mode:multiply">
<path d="M405.321 136.293C386.691 136.293 371.531 121.284 371.531 102.84C371.531 84.3963 386.691 69.3877 405.321 69.3877C423.951 69.3877 439.112 84.3963 439.112 102.84C439.112 121.284 423.951 136.293 405.321 136.293ZM405.321 70.862C387.51 70.862 373.02 85.2072 373.02 102.84C373.02 120.473 387.51 134.818 405.321 134.818C423.132 134.818 437.622 120.473 437.622 102.84C437.622 85.2072 423.132 70.862 405.321 70.862Z" fill="#B1B1B1"/>
</g>
</g>
</g>
<defs>
<clipPath id="clip0_2_312">
<rect width="137" height="45" fill="white" transform="translate(61 81)"/>
</clipPath>
<clipPath id="clip1_2_312">
<rect width="172" height="46" fill="white" transform="translate(594 80)"/>
</clipPath>
<clipPath id="clip2_2_312">
<rect width="123" height="50" fill="white" transform="translate(1169 78)"/>
</clipPath>
<clipPath id="clip3_2_312">
<rect width="152" height="47" fill="white" transform="translate(879 80)"/>
</clipPath>
<clipPath id="clip4_2_312">
<rect width="108" height="106" fill="white" transform="translate(351 50)"/>
</clipPath>
</defs>
</svg>
