<svg width="15" height="15" viewBox="0 0 15 15" fill="none" xmlns="http://www.w3.org/2000/svg">
<g clip-path="url(#clip0_2_383)">
<path d="M7.5 1.35059C5.49609 1.35059 5.25879 1.35937 4.4707 1.39453C3.73828 1.42676 3.34277 1.5498 3.0791 1.65234C2.73047 1.78711 2.47852 1.95117 2.21777 2.21191C1.9541 2.47559 1.79297 2.72461 1.6582 3.07324C1.55566 3.33691 1.43262 3.73535 1.40039 4.46484C1.36523 5.25586 1.35644 5.49316 1.35644 7.49414C1.35644 9.49805 1.36523 9.73535 1.40039 10.5234C1.43262 11.2559 1.55566 11.6514 1.6582 11.915C1.79297 12.2637 1.95703 12.5156 2.21777 12.7764C2.48145 13.04 2.73047 13.2012 3.0791 13.3359C3.34277 13.4385 3.74121 13.5615 4.4707 13.5938C5.26172 13.6289 5.49902 13.6377 7.5 13.6377C9.50391 13.6377 9.74121 13.6289 10.5293 13.5938C11.2617 13.5615 11.6572 13.4385 11.9209 13.3359C12.2695 13.2012 12.5215 13.0371 12.7822 12.7764C13.0459 12.5127 13.207 12.2637 13.3418 11.915C13.4443 11.6514 13.5674 11.2529 13.5996 10.5234C13.6348 9.73242 13.6436 9.49512 13.6436 7.49414C13.6436 5.49023 13.6348 5.25293 13.5996 4.46484C13.5674 3.73242 13.4443 3.33691 13.3418 3.07324C13.207 2.72461 13.043 2.47266 12.7822 2.21191C12.5186 1.94824 12.2695 1.78711 11.9209 1.65234C11.6572 1.5498 11.2588 1.42676 10.5293 1.39453C9.74121 1.35937 9.50391 1.35059 7.5 1.35059ZM7.5 0C9.53613 0 9.79102 0.00878906 10.5908 0.0439453C11.3877 0.0791016 11.9355 0.208008 12.4102 0.392578C12.9053 0.585937 13.3242 0.84082 13.7402 1.25977C14.1592 1.67578 14.4141 2.09473 14.6074 2.58691C14.792 3.06445 14.9209 3.60937 14.9561 4.40625C14.9912 5.20898 15 5.46387 15 7.5C15 9.53613 14.9912 9.79102 14.9561 10.5908C14.9209 11.3877 14.792 11.9355 14.6074 12.4102C14.4141 12.9053 14.1592 13.3242 13.7402 13.7402C13.3242 14.1562 12.9053 14.4141 12.4131 14.6045C11.9355 14.7891 11.3906 14.918 10.5937 14.9531C9.79395 14.9883 9.53906 14.9971 7.50293 14.9971C5.4668 14.9971 5.21191 14.9883 4.41211 14.9531C3.61523 14.918 3.06738 14.7891 2.59277 14.6045C2.10058 14.4141 1.68164 14.1562 1.26562 13.7402C0.849609 13.3242 0.591797 12.9053 0.401367 12.4131C0.216797 11.9355 0.0878897 11.3906 0.0527334 10.5938C0.0175772 9.79395 0.00878811 9.53906 0.00878811 7.50293C0.00878811 5.4668 0.0175772 5.21191 0.0527334 4.41211C0.0878897 3.61523 0.216797 3.06738 0.401367 2.59277C0.585937 2.09473 0.840819 1.67578 1.25976 1.25977C1.67578 0.84375 2.09473 0.585938 2.58691 0.395508C3.06445 0.210937 3.60937 0.0820313 4.40625 0.046875C5.20898 0.00878907 5.46387 0 7.5 0Z" fill="#000100"/>
<path d="M7.5 3.64746C9.62695 3.64746 11.3525 5.37305 11.3525 7.5C11.3525 9.62695 9.62695 11.3525 7.5 11.3525C5.37305 11.3525 3.64746 9.62695 3.64746 7.5C3.64746 5.37305 5.37305 3.64746 7.5 3.64746ZM7.5 9.99902C8.87988 9.99902 9.99902 8.87988 9.99902 7.5C9.99902 6.12012 8.87988 5.00098 7.5 5.00098C6.12012 5.00098 5.00098 6.12012 5.00098 7.5C5.00098 8.87988 6.12012 9.99902 7.5 9.99902Z" fill="#000100"/>
<path d="M2.5957 3.49512C2.5957 3.99317 3 4.39453 3.49512 4.39453C3.99316 4.39453 4.39453 3.99024 4.39453 3.49512C4.39453 2.99707 3.99023 2.5957 3.49512 2.5957C3 2.5957 2.5957 3 2.5957 3.49512Z" fill="#000100"/>
</g>
<defs>
<clipPath id="clip0_2_383">
<rect width="15" height="15" fill="white" transform="matrix(-1 0 0 1 15 0)"/>
</clipPath>
</defs>
</svg>
