<svg width="15" height="15" viewBox="0 0 15 15" fill="none" xmlns="http://www.w3.org/2000/svg">
<g clip-path="url(#clip0_2_384)">
<path d="M15 7.5C15 3.3579 11.6421 0 7.5 0C3.3579 0 0 3.3579 0 7.5C0 11.0172 2.4216 13.9686 5.6883 14.7792V9.792H4.1418V7.5H5.6883V6.5124C5.6883 3.9597 6.8436 2.7765 9.3498 2.7765C9.825 2.7765 10.6449 2.8698 10.9803 2.9628V5.0403C10.8033 5.0217 10.4958 5.0124 10.1139 5.0124C8.8842 5.0124 8.409 5.4783 8.409 6.6894V7.5H10.8588L10.4379 9.792H8.409V14.9451C12.1227 14.4966 15.0003 11.3346 15.0003 7.5H15Z" fill="#0866FF"/>
<path d="M10.4376 9.79211L10.8585 7.50011H8.40871V6.68951C8.40871 5.47841 8.88391 5.01251 10.1136 5.01251C10.4955 5.01251 10.803 5.02181 10.98 5.04041V2.96291C10.6446 2.86961 9.82471 2.77661 9.34951 2.77661C6.84331 2.77661 5.68801 3.95981 5.68801 6.51251V7.50011H4.14151V9.79211H5.68801V14.7793C6.26821 14.9233 6.87511 15.0001 7.49971 15.0001C7.80721 15.0001 8.11051 14.9812 8.40841 14.9452V9.79211H10.4373H10.4376Z" fill="white"/>
</g>
<defs>
<clipPath id="clip0_2_384">
<rect width="15" height="15" fill="white"/>
</clipPath>
</defs>
</svg>
