<svg width="15" height="15" viewBox="0 0 15 15" fill="none" xmlns="http://www.w3.org/2000/svg">
<g clip-path="url(#clip0_2_381)">
<path d="M14.7012 3.86582C14.6164 3.5467 14.4493 3.25546 14.2166 3.02123C13.9838 2.787 13.6937 2.61801 13.3751 2.53116C12.2024 2.21582 7.51488 2.21582 7.51488 2.21582C7.51488 2.21582 2.82738 2.21582 1.65465 2.53116C1.33608 2.61801 1.04591 2.787 0.813182 3.02123C0.58045 3.25546 0.413318 3.5467 0.328514 3.86582C0.0148774 5.04366 0.0148773 7.49991 0.0148773 7.49991C0.0148773 7.49991 0.0148774 9.95616 0.328514 11.134C0.413318 11.4531 0.58045 11.7444 0.813182 11.9786C1.04591 12.2128 1.33608 12.3818 1.65465 12.4687C2.82738 12.784 7.51488 12.784 7.51488 12.784C7.51488 12.784 12.2024 12.784 13.3751 12.4687C13.6937 12.3818 13.9838 12.2128 14.2166 11.9786C14.4493 11.7444 14.6164 11.4531 14.7012 11.134C15.0149 9.95616 15.0149 7.49991 15.0149 7.49991C15.0149 7.49991 15.0149 5.04366 14.7012 3.86582Z" fill="#FF0302"/>
<path d="M5.9808 9.73033V5.26953L9.90126 7.49993L5.9808 9.73033Z" fill="#FEFEFE"/>
</g>
<defs>
<clipPath id="clip0_2_381">
<rect width="15" height="15" fill="white"/>
</clipPath>
</defs>
</svg>
